<?xml version="1.0" encoding="utf-8"?>
<svg xmlns="http://www.w3.org/2000/svg" xmlns:xlink="http://www.w3.org/1999/xlink" style="margin: auto; background: rgb(247, 248, 249); display: block; z-index: 1; position: relative; shape-rendering: auto;" width="2586" height="953" preserveAspectRatio="xMidYMid" viewBox="0 0 2586 953">
<g transform="translate(1293,476.5) scale(1,1) translate(-1293,-476.5)"><path d="M-100 681.93C-46.87 664.74 -44.53 693.92 3.19 693.92S57.63 695.62 106.37 695.62S160.53 696.97 209.56 696.97S261.54 696.38 312.74 696.38S365.13 697.5 415.93 697.5S468.76 688.4 519.11 688.4S574.06 678.37 622.3 678.37S677.89 704.28 725.48 704.28S780.21 677.72 828.67 677.72S882.83 697.38 931.85 697.38S988 697.53 1035.04 697.53S1089.38 681.13 1138.22 681.13S1193.08 663.7 1241.41 663.7S1293.68 701.2 1344.59 701.2S1400.73 680.74 1447.78 680.74S1501.09 661.37 1550.96 661.37S1606.88 662.16 1654.15 662.16S1707.91 671.94 1757.33 671.94S1809.24 698.88 1860.52 698.88S1916.66 701.06 1963.7 701.06S2016.99 699.9 2066.89 699.9S2123 688.73 2170.07 688.73S2223.39 700.5 2273.26 700.5S2326.52 692.65 2376.44 692.65S2430.9 665.91 2479.63 665.91S2532.8 673.35 2582.81 673.35S2637.98 680.94 2686 680.94S2742.21 693 2789.19 693L2686 953 L-100 953 Z" fill="#07a5c4" stroke-width="0">
  <animate attributeName="d" dur="550s" repeatCount="indefinite" values="M-100 681.93C-46.87 664.74 -44.53 693.92 3.19 693.92S57.63 695.62 106.37 695.62S160.53 696.97 209.56 696.97S261.54 696.38 312.74 696.38S365.13 697.5 415.93 697.5S468.76 688.4 519.11 688.4S574.06 678.37 622.3 678.37S677.89 704.28 725.48 704.28S780.21 677.72 828.67 677.72S882.83 697.38 931.85 697.38S988 697.53 1035.04 697.53S1089.38 681.13 1138.22 681.13S1193.08 663.7 1241.41 663.7S1293.68 701.2 1344.59 701.2S1400.73 680.74 1447.78 680.74S1501.09 661.37 1550.96 661.37S1606.88 662.16 1654.15 662.16S1707.91 671.94 1757.33 671.94S1809.24 698.88 1860.52 698.88S1916.66 701.06 1963.7 701.06S2016.99 699.9 2066.89 699.9S2123 688.73 2170.07 688.73S2223.39 700.5 2273.26 700.5S2326.52 692.65 2376.44 692.65S2430.9 665.91 2479.63 665.91S2532.8 673.35 2582.81 673.35S2637.98 680.94 2686 680.94S2742.21 693 2789.19 693L2686 953 L-100 953 Z;M-100 687.96C-47.43 660.03 -47.12 679.58 3.19 679.58S58.49 670.3 106.37 670.3S159.71 699.89 209.56 699.89S261.64 668.26 312.74 668.26S365.52 689.81 415.93 689.81S472 669.29 519.11 669.29S574.02 675.14 622.3 675.14S675.42 677.95 725.48 677.95S777.09 691.36 828.67 691.36S881.76 671.67 931.85 671.67S983.47 690.29 1035.04 690.29S1086.64 669.84 1138.22 669.84S1190.86 701.36 1241.41 701.36S1296.53 702.93 1344.59 702.93S1400.05 685.69 1447.78 685.69S1500.28 696.43 1550.96 696.43S1604.55 687.22 1654.15 687.22S1706.06 671.21 1757.33 671.21S1812.11 663.11 1860.52 663.11S1915.73 685.32 1963.7 685.32S2019.64 694.97 2066.89 694.97S2121.66 692.66 2170.07 692.66S2225.28 696.56 2273.26 696.56S2329.02 667.21 2376.44 667.21S2429.17 668.54 2479.63 668.54S2532.99 672.64 2582.81 672.64S2635.7 694.93 2686 694.93S2741.4 668.64 2789.19 668.64L2686 953 L-100 953 Z;M-100 681.93C-46.87 664.74 -44.53 693.92 3.19 693.92S57.63 695.62 106.37 695.62S160.53 696.97 209.56 696.97S261.54 696.38 312.74 696.38S365.13 697.5 415.93 697.5S468.76 688.4 519.11 688.4S574.06 678.37 622.3 678.37S677.89 704.28 725.48 704.28S780.21 677.72 828.67 677.72S882.83 697.38 931.85 697.38S988 697.53 1035.04 697.53S1089.38 681.13 1138.22 681.13S1193.08 663.7 1241.41 663.7S1293.68 701.2 1344.59 701.2S1400.73 680.74 1447.78 680.74S1501.09 661.37 1550.96 661.37S1606.88 662.16 1654.15 662.16S1707.91 671.94 1757.33 671.94S1809.24 698.88 1860.52 698.88S1916.66 701.06 1963.7 701.06S2016.99 699.9 2066.89 699.9S2123 688.73 2170.07 688.73S2223.39 700.5 2273.26 700.5S2326.52 692.65 2376.44 692.65S2430.9 665.91 2479.63 665.91S2532.8 673.35 2582.81 673.35S2637.98 680.94 2686 680.94S2742.21 693 2789.19 693L2686 953 L-100 953 Z"></animate>
  <animateTransform attributeName="transform" type="translate" dur="550s" begin="0s" repeatCount="indefinite" values="0;10;0" calcMode="spline" keySplines="0.3 0 0.7 1;0.3 0 0.7 1"></animateTransform>
</path><path d="M-100 728.68C-45.11 717.95 -44.59 704.23 5.68 704.23S61.61 715.76 111.35 715.76S164.41 694.28 217.03 694.28S270.06 703.54 322.7 703.54S375.84 722.28 428.38 722.28S484.86 682.05 534.06 682.05S587.49 701.89 639.73 701.89S694.09 724.98 745.41 724.98S799.88 705.22 851.08 705.22S906.36 708.05 956.76 708.05S1012.95 680.63 1062.43 680.63S1118.28 729.56 1168.11 729.56S1221.72 706.9 1273.79 706.9S1326.76 707.71 1379.46 707.71S1435.16 691.14 1485.14 691.14S1538.29 693.81 1590.81 693.81S1645.23 689.39 1696.49 689.39S1751.6 697.57 1802.17 697.57S1857.82 713.77 1907.84 713.77S1964.94 728.56 2013.52 728.56S2066.83 693.1 2119.19 693.1S2173.04 684.75 2224.87 684.75S2280.52 684.11 2330.54 684.11S2385.08 696.49 2436.22 696.49S2491.48 687.97 2541.9 687.97S2595.44 702.32 2647.57 702.32S2703.48 695.11 2753.25 695.11L2686 953 L-100 953 Z" fill="#009ec1" stroke-width="0">
  <animate attributeName="d" dur="500s" repeatCount="indefinite" values="M-100 728.68C-45.11 717.95 -44.59 704.23 5.68 704.23S61.61 715.76 111.35 715.76S164.41 694.28 217.03 694.28S270.06 703.54 322.7 703.54S375.84 722.28 428.38 722.28S484.86 682.05 534.06 682.05S587.49 701.89 639.73 701.89S694.09 724.98 745.41 724.98S799.88 705.22 851.08 705.22S906.36 708.05 956.76 708.05S1012.95 680.63 1062.43 680.63S1118.28 729.56 1168.11 729.56S1221.72 706.9 1273.79 706.9S1326.76 707.71 1379.46 707.71S1435.16 691.14 1485.14 691.14S1538.29 693.81 1590.81 693.81S1645.23 689.39 1696.49 689.39S1751.6 697.57 1802.17 697.57S1857.82 713.77 1907.84 713.77S1964.94 728.56 2013.52 728.56S2066.83 693.1 2119.19 693.1S2173.04 684.75 2224.87 684.75S2280.52 684.11 2330.54 684.11S2385.08 696.49 2436.22 696.49S2491.48 687.97 2541.9 687.97S2595.44 702.32 2647.57 702.32S2703.48 695.11 2753.25 695.11L2686 953 L-100 953 Z;M-100 687.63C-44.75 710.81 -46.94 709.22 5.68 709.22S60.88 681.18 111.35 681.18S165.23 718.63 217.03 718.63S274.23 706.53 322.7 706.53S379.58 702.2 428.38 702.2S482.25 725.98 534.06 725.98S590.63 715.84 639.73 715.84S694.01 698.64 745.41 698.64S799.97 695.56 851.08 695.56S905.85 697.52 956.76 697.52S1013.98 704.96 1062.43 704.96S1115.73 679.25 1168.11 679.25S1224.68 718.82 1273.79 718.82S1330.57 715.04 1379.46 715.04S1435.14 699.79 1485.14 699.79S1540.77 683.98 1590.81 683.98S1645.87 725.55 1696.49 725.55S1749.73 694.27 1802.17 694.27S1859.49 710.87 1907.84 710.87S1961.27 690.68 2013.52 690.68S2068.11 721.57 2119.19 721.57S2173.92 709.57 2224.87 709.57S2280.4 695.46 2330.54 695.46S2384.62 716.04 2436.22 716.04S2491.7 696.19 2541.9 696.19S2597.66 722.81 2647.57 722.81S2704.82 693.47 2753.25 693.47L2686 953 L-100 953 Z;M-100 728.68C-45.11 717.95 -44.59 704.23 5.68 704.23S61.61 715.76 111.35 715.76S164.41 694.28 217.03 694.28S270.06 703.54 322.7 703.54S375.84 722.28 428.38 722.28S484.86 682.05 534.06 682.05S587.49 701.89 639.73 701.89S694.09 724.98 745.41 724.98S799.88 705.22 851.08 705.22S906.36 708.05 956.76 708.05S1012.95 680.63 1062.43 680.63S1118.28 729.56 1168.11 729.56S1221.72 706.9 1273.79 706.9S1326.76 707.71 1379.46 707.71S1435.16 691.14 1485.14 691.14S1538.29 693.81 1590.81 693.81S1645.23 689.39 1696.49 689.39S1751.6 697.57 1802.17 697.57S1857.82 713.77 1907.84 713.77S1964.94 728.56 2013.52 728.56S2066.83 693.1 2119.19 693.1S2173.04 684.75 2224.87 684.75S2280.52 684.11 2330.54 684.11S2385.08 696.49 2436.22 696.49S2491.48 687.97 2541.9 687.97S2595.44 702.32 2647.57 702.32S2703.48 695.11 2753.25 695.11L2686 953 L-100 953 Z"></animate>
  <animateTransform attributeName="transform" type="translate" dur="500s" begin="-45.45454545454545s" repeatCount="indefinite" values="0;10;0" calcMode="spline" keySplines="0.3 0 0.7 1;0.3 0 0.7 1"></animateTransform>
</path><path d="M-100 749.82C-43.08 728.51 -42.94 732.68 8.29 732.68S63.72 746.71 116.58 746.71S173.21 747.03 224.87 747.03S280.22 717.99 333.16 717.99S387.88 740.11 441.45 740.11S499.6 728.48 549.74 728.48S606.96 742.23 658.03 742.23S715.29 713.96 766.32 713.96S821.22 749.79 874.61 749.79S931.61 730.97 982.9 730.97S1040.88 748.23 1091.19 748.23S1149.27 702.91 1199.48 702.91S1257.13 754.56 1307.77 754.56S1366.27 722.06 1416.06 722.06S1472.43 732 1524.35 732S1580.83 748.34 1632.64 748.34S1689.59 754.25 1740.93 754.25S1795.41 735.13 1849.22 735.13S1905.14 754.43 1957.51 754.43S2015.2 744.95 2065.8 744.95S2123.82 736.29 2174.08 736.29S2231.54 709.29 2282.37 709.29S2340.46 717.27 2390.66 717.27S2447.04 711.5 2498.95 711.5S2557.34 721.3 2607.24 721.3S2665.43 747.56 2715.53 747.56L2686 953 L-100 953 Z" fill="#0096bd" stroke-width="0">
  <animate attributeName="d" dur="450s" repeatCount="indefinite" values="M-100 749.82C-43.08 728.51 -42.94 732.68 8.29 732.68S63.72 746.71 116.58 746.71S173.21 747.03 224.87 747.03S280.22 717.99 333.16 717.99S387.88 740.11 441.45 740.11S499.6 728.48 549.74 728.48S606.96 742.23 658.03 742.23S715.29 713.96 766.32 713.96S821.22 749.79 874.61 749.79S931.61 730.97 982.9 730.97S1040.88 748.23 1091.19 748.23S1149.27 702.91 1199.48 702.91S1257.13 754.56 1307.77 754.56S1366.27 722.06 1416.06 722.06S1472.43 732 1524.35 732S1580.83 748.34 1632.64 748.34S1689.59 754.25 1740.93 754.25S1795.41 735.13 1849.22 735.13S1905.14 754.43 1957.51 754.43S2015.2 744.95 2065.8 744.95S2123.82 736.29 2174.08 736.29S2231.54 709.29 2282.37 709.29S2340.46 717.27 2390.66 717.27S2447.04 711.5 2498.95 711.5S2557.34 721.3 2607.24 721.3S2665.43 747.56 2715.53 747.56L2686 953 L-100 953 Z;M-100 738.22C-43.6 740.13 -42.13 741.15 8.29 741.15S65.62 751.44 116.58 751.44S171.36 746.88 224.87 746.88S281.34 717.44 333.16 717.44S388.45 717.01 441.45 717.01S496.72 701.12 549.74 701.12S608.36 754.37 658.03 754.37S716.48 715.66 766.32 715.66S824.39 757.81 874.61 757.81S929.09 719.45 982.9 719.45S1038.53 738.19 1091.19 738.19S1149.02 753.68 1199.48 753.68S1255.39 742.76 1307.77 742.76S1363.53 757.66 1416.06 757.66S1470.32 732.23 1524.35 732.23S1578.54 701.8 1632.64 701.8S1688.61 724.54 1740.93 724.54S1796.62 727.84 1849.22 727.84S1907.71 723.28 1957.51 723.28S2013.36 715.83 2065.8 715.83S2122.03 746.87 2174.08 746.87S2231.91 705.91 2282.37 705.91S2339.94 720.15 2390.66 720.15S2444.95 710.55 2498.95 710.55S2556.47 741.37 2607.24 741.37S2661.69 726.22 2715.53 726.22L2686 953 L-100 953 Z;M-100 749.82C-43.08 728.51 -42.94 732.68 8.29 732.68S63.72 746.71 116.58 746.71S173.21 747.03 224.87 747.03S280.22 717.99 333.16 717.99S387.88 740.11 441.45 740.11S499.6 728.48 549.74 728.48S606.96 742.23 658.03 742.23S715.29 713.96 766.32 713.96S821.22 749.79 874.61 749.79S931.61 730.97 982.9 730.97S1040.88 748.23 1091.19 748.23S1149.27 702.91 1199.48 702.91S1257.13 754.56 1307.77 754.56S1366.27 722.06 1416.06 722.06S1472.43 732 1524.35 732S1580.83 748.34 1632.64 748.34S1689.59 754.25 1740.93 754.25S1795.41 735.13 1849.22 735.13S1905.14 754.43 1957.51 754.43S2015.2 744.95 2065.8 744.95S2123.82 736.29 2174.08 736.29S2231.54 709.29 2282.37 709.29S2340.46 717.27 2390.66 717.27S2447.04 711.5 2498.95 711.5S2557.34 721.3 2607.24 721.3S2665.43 747.56 2715.53 747.56L2686 953 L-100 953 Z"></animate>
  <animateTransform attributeName="transform" type="translate" dur="450s" begin="-81.81818181818181s" repeatCount="indefinite" values="0;10;0" calcMode="spline" keySplines="0.3 0 0.7 1;0.3 0 0.7 1"></animateTransform>
</path><path d="M-100 785.26C-42.7 779.08 -42.3 785.73 11.04 785.73S71.22 724.09 122.07 724.09S178.73 757.49 233.11 757.49S292.97 748.11 344.14 748.11S403.32 779.38 455.18 779.38S513.42 732.47 566.22 732.47S622.81 776.11 677.25 776.11S737 734.02 788.29 734.02S847.93 742.44 899.33 742.44S958.31 738.59 1010.36 738.59S1070 761.31 1121.4 761.31S1177.82 769.26 1232.43 769.26S1289.32 779.98 1343.47 779.98S1402.64 776.05 1454.51 776.05S1512.08 780.46 1565.54 780.46S1623.45 771.58 1676.58 771.58S1732.4 743.27 1787.62 743.27S1844.88 758.46 1898.65 758.46S1954.53 763.07 2009.69 763.07S2067.66 743.86 2120.72 743.86S2176.7 750.23 2231.76 750.23S2288.18 765.95 2342.8 765.95S2399.68 779.06 2453.83 779.06S2511.13 749.2 2564.87 749.2S2623.83 766.71 2675.91 766.71S2734.33 724.75 2786.94 724.75L2686 953 L-100 953 Z" fill="#008fba" stroke-width="0">
  <animate attributeName="d" dur="400s" repeatCount="indefinite" values="M-100 785.26C-42.7 779.08 -42.3 785.73 11.04 785.73S71.22 724.09 122.07 724.09S178.73 757.49 233.11 757.49S292.97 748.11 344.14 748.11S403.32 779.38 455.18 779.38S513.42 732.47 566.22 732.47S622.81 776.11 677.25 776.11S737 734.02 788.29 734.02S847.93 742.44 899.33 742.44S958.31 738.59 1010.36 738.59S1070 761.31 1121.4 761.31S1177.82 769.26 1232.43 769.26S1289.32 779.98 1343.47 779.98S1402.64 776.05 1454.51 776.05S1512.08 780.46 1565.54 780.46S1623.45 771.58 1676.58 771.58S1732.4 743.27 1787.62 743.27S1844.88 758.46 1898.65 758.46S1954.53 763.07 2009.69 763.07S2067.66 743.86 2120.72 743.86S2176.7 750.23 2231.76 750.23S2288.18 765.95 2342.8 765.95S2399.68 779.06 2453.83 779.06S2511.13 749.2 2564.87 749.2S2623.83 766.71 2675.91 766.71S2734.33 724.75 2786.94 724.75L2686 953 L-100 953 Z;M-100 731.18C-44.13 746.37 -43.85 778.68 11.04 778.68S68.49 748.28 122.07 748.28S179.3 769.62 233.11 769.62S292.59 752.11 344.14 752.11S402.62 747.98 455.18 747.98S513.27 749.13 566.22 749.13S623.25 746.51 677.25 746.51S733.24 736.74 788.29 736.74S844.5 785.34 899.33 785.34S955.84 760.47 1010.36 760.47S1066.7 723.92 1121.4 723.92S1181.21 750.13 1232.43 750.13S1290.32 743.7 1343.47 743.7S1403.49 749.77 1454.51 749.77S1513.25 739.99 1565.54 739.99S1623.51 730.51 1676.58 730.51S1732.28 739.77 1787.62 739.77S1845.27 766.75 1898.65 766.75S1955.44 766.12 2009.69 766.12S2069.85 764.43 2120.72 764.43S2178.53 763.15 2231.76 763.15S2289.87 725.61 2342.8 725.61S2399.94 762.21 2453.83 762.21S2511.71 759.78 2564.87 759.78S2623.66 775.62 2675.91 775.62S2735.91 777.14 2786.94 777.14L2686 953 L-100 953 Z;M-100 785.26C-42.7 779.08 -42.3 785.73 11.04 785.73S71.22 724.09 122.07 724.09S178.73 757.49 233.11 757.49S292.97 748.11 344.14 748.11S403.32 779.38 455.18 779.38S513.42 732.47 566.22 732.47S622.81 776.11 677.25 776.11S737 734.02 788.29 734.02S847.93 742.44 899.33 742.44S958.31 738.59 1010.36 738.59S1070 761.31 1121.4 761.31S1177.82 769.26 1232.43 769.26S1289.32 779.98 1343.47 779.98S1402.64 776.05 1454.51 776.05S1512.08 780.46 1565.54 780.46S1623.45 771.58 1676.58 771.58S1732.4 743.27 1787.62 743.27S1844.88 758.46 1898.65 758.46S1954.53 763.07 2009.69 763.07S2067.66 743.86 2120.72 743.86S2176.7 750.23 2231.76 750.23S2288.18 765.95 2342.8 765.95S2399.68 779.06 2453.83 779.06S2511.13 749.2 2564.87 749.2S2623.83 766.71 2675.91 766.71S2734.33 724.75 2786.94 724.75L2686 953 L-100 953 Z"></animate>
  <animateTransform attributeName="transform" type="translate" dur="400s" begin="-109.0909090909091s" repeatCount="indefinite" values="0;10;0" calcMode="spline" keySplines="0.3 0 0.7 1;0.3 0 0.7 1"></animateTransform>
</path><path d="M-100 785.65C-41.38 759.15 -38.54 776.62 13.93 776.62S72.63 745.45 127.85 745.45S188.45 770.45 241.78 770.45S303.22 811.87 355.7 811.87S413.84 812.21 469.63 812.21S529.61 746.39 583.55 746.39S642.54 757.32 697.48 757.32S756.05 746 811.41 746S870.03 792.14 925.33 792.14S985.62 782.9 1039.26 782.9S1098.57 788.84 1153.18 788.84S1210.86 753.36 1267.11 753.36S1328.53 807.08 1381.03 807.08S1438.77 778.05 1494.96 778.05S1555.06 772.94 1608.88 772.94S1666.56 763.44 1722.81 763.44S1784.36 809.6 1836.74 809.6S1897.57 778.78 1950.66 778.78S2008.84 768.14 2064.59 768.14S2124.6 784.11 2178.51 784.11S2238.98 763.6 2292.44 763.6S2353.71 767.62 2406.36 767.62S2465.68 756.95 2520.29 756.95S2578.98 784.94 2634.22 784.94S2692.44 797.8 2748.14 797.8L2686 953 L-100 953 Z" fill="#0087b6" stroke-width="0">
  <animate attributeName="d" dur="350s" repeatCount="indefinite" values="M-100 785.65C-41.38 759.15 -38.54 776.62 13.93 776.62S72.63 745.45 127.85 745.45S188.45 770.45 241.78 770.45S303.22 811.87 355.7 811.87S413.84 812.21 469.63 812.21S529.61 746.39 583.55 746.39S642.54 757.32 697.48 757.32S756.05 746 811.41 746S870.03 792.14 925.33 792.14S985.62 782.9 1039.26 782.9S1098.57 788.84 1153.18 788.84S1210.86 753.36 1267.11 753.36S1328.53 807.08 1381.03 807.08S1438.77 778.05 1494.96 778.05S1555.06 772.94 1608.88 772.94S1666.56 763.44 1722.81 763.44S1784.36 809.6 1836.74 809.6S1897.57 778.78 1950.66 778.78S2008.84 768.14 2064.59 768.14S2124.6 784.11 2178.51 784.11S2238.98 763.6 2292.44 763.6S2353.71 767.62 2406.36 767.62S2465.68 756.95 2520.29 756.95S2578.98 784.94 2634.22 784.94S2692.44 797.8 2748.14 797.8L2686 953 L-100 953 Z;M-100 778.39C-40.06 787.4 -40.99 811.43 13.93 811.43S72.1 767.28 127.85 767.28S187.98 787.06 241.78 787.06S300.12 783.34 355.7 783.34S414.85 768.75 469.63 768.75S529.56 800.34 583.55 800.34S643.68 784.19 697.48 784.19S756.13 766.98 811.41 766.98S871.56 768.75 925.33 768.75S983.42 747.03 1039.26 747.03S1100.47 793.92 1153.18 793.92S1210.53 750.4 1267.11 750.4S1325.91 780.5 1381.03 780.5S1438.6 805.48 1494.96 805.48S1554.8 788.69 1608.88 788.69S1666.36 751.73 1722.81 751.73S1781.26 779.94 1836.74 779.94S1895.05 765.51 1950.66 765.51S2011.34 789.77 2064.59 789.77S2124.06 774.81 2178.51 774.81S2236.51 752.38 2292.44 752.38S2352.18 767.68 2406.36 767.68S2465.68 788.38 2520.29 788.38S2581.26 762.36 2634.22 762.36S2692.78 775.67 2748.14 775.67L2686 953 L-100 953 Z;M-100 785.65C-41.38 759.15 -38.54 776.62 13.93 776.62S72.63 745.45 127.85 745.45S188.45 770.45 241.78 770.45S303.22 811.87 355.7 811.87S413.84 812.21 469.63 812.21S529.61 746.39 583.55 746.39S642.54 757.32 697.48 757.32S756.05 746 811.41 746S870.03 792.14 925.33 792.14S985.62 782.9 1039.26 782.9S1098.57 788.84 1153.18 788.84S1210.86 753.36 1267.11 753.36S1328.53 807.08 1381.03 807.08S1438.77 778.05 1494.96 778.05S1555.06 772.94 1608.88 772.94S1666.56 763.44 1722.81 763.44S1784.36 809.6 1836.74 809.6S1897.57 778.78 1950.66 778.78S2008.84 768.14 2064.59 768.14S2124.6 784.11 2178.51 784.11S2238.98 763.6 2292.44 763.6S2353.71 767.62 2406.36 767.62S2465.68 756.95 2520.29 756.95S2578.98 784.94 2634.22 784.94S2692.44 797.8 2748.14 797.8L2686 953 L-100 953 Z"></animate>
  <animateTransform attributeName="transform" type="translate" dur="350s" begin="-127.27272727272727s" repeatCount="indefinite" values="0;10;0" calcMode="spline" keySplines="0.3 0 0.7 1;0.3 0 0.7 1"></animateTransform>
</path><path d="M-100 783.54C-40.87 771.71 -38.09 826.52 16.97 826.52S76.94 775.93 133.94 775.93S194.9 806.5 250.91 806.5S311.76 767.44 367.88 767.44S430.13 814.14 484.85 814.14S544.14 825.78 601.82 825.78S662.71 793.79 718.79 793.79S780.39 780.91 835.76 780.91S895.23 835.36 952.73 835.36S1015.04 811.67 1069.69 811.67S1132.39 780.66 1186.66 780.66S1248.45 787.74 1303.63 787.74S1363.03 807.4 1420.6 807.4S1479.15 837.53 1537.57 837.53S1600 795.79 1654.54 795.79S1716.81 837.53 1771.51 837.53S1832.28 802.89 1888.48 802.89S1950.39 800.82 2005.45 800.82S2067.81 834.4 2122.42 834.4S2183.23 770.84 2239.39 770.84S2299.75 832.33 2356.36 832.33S2417.07 796.74 2473.33 796.74S2535.16 785.84 2590.3 785.84S2652.98 775.58 2707.27 775.58L2686 953 L-100 953 Z" fill="#0080b2" stroke-width="0">
  <animate attributeName="d" dur="300s" repeatCount="indefinite" values="M-100 783.54C-40.87 771.71 -38.09 826.52 16.97 826.52S76.94 775.93 133.94 775.93S194.9 806.5 250.91 806.5S311.76 767.44 367.88 767.44S430.13 814.14 484.85 814.14S544.14 825.78 601.82 825.78S662.71 793.79 718.79 793.79S780.39 780.91 835.76 780.91S895.23 835.36 952.73 835.36S1015.04 811.67 1069.69 811.67S1132.39 780.66 1186.66 780.66S1248.45 787.74 1303.63 787.74S1363.03 807.4 1420.6 807.4S1479.15 837.53 1537.57 837.53S1600 795.79 1654.54 795.79S1716.81 837.53 1771.51 837.53S1832.28 802.89 1888.48 802.89S1950.39 800.82 2005.45 800.82S2067.81 834.4 2122.42 834.4S2183.23 770.84 2239.39 770.84S2299.75 832.33 2356.36 832.33S2417.07 796.74 2473.33 796.74S2535.16 785.84 2590.3 785.84S2652.98 775.58 2707.27 775.58L2686 953 L-100 953 Z;M-100 818.3C-37.32 815.95 -37.94 802.96 16.97 802.96S77.29 799.9 133.94 799.9S196.04 795.79 250.91 795.79S313.83 807.3 367.88 807.3S428.15 826.3 484.85 826.3S545.05 787.1 601.82 787.1S662.12 805.67 718.79 805.67S777.96 817.11 835.76 817.11S898.74 793.7 952.73 793.7S1013.26 788.51 1069.69 788.51S1128.39 817.9 1186.66 817.9S1246.71 771.97 1303.63 771.97S1366.67 801.51 1420.6 801.51S1480.74 803.76 1537.57 803.76S1600.34 806.64 1654.54 806.64S1717.58 829.1 1771.51 829.1S1830.38 809.16 1888.48 809.16S1951.62 799 2005.45 799S2066.16 825.66 2122.42 825.66S2184.98 775.03 2239.39 775.03S2301.6 807.69 2356.36 807.69S2418.28 768.54 2473.33 768.54S2536.39 836.82 2590.3 836.82S2650.49 812.92 2707.27 812.92L2686 953 L-100 953 Z;M-100 783.54C-40.87 771.71 -38.09 826.52 16.97 826.52S76.94 775.93 133.94 775.93S194.9 806.5 250.91 806.5S311.76 767.44 367.88 767.44S430.13 814.14 484.85 814.14S544.14 825.78 601.82 825.78S662.71 793.79 718.79 793.79S780.39 780.91 835.76 780.91S895.23 835.36 952.73 835.36S1015.04 811.67 1069.69 811.67S1132.39 780.66 1186.66 780.66S1248.45 787.74 1303.63 787.74S1363.03 807.4 1420.6 807.4S1479.15 837.53 1537.57 837.53S1600 795.79 1654.54 795.79S1716.81 837.53 1771.51 837.53S1832.28 802.89 1888.48 802.89S1950.39 800.82 2005.45 800.82S2067.81 834.4 2122.42 834.4S2183.23 770.84 2239.39 770.84S2299.75 832.33 2356.36 832.33S2417.07 796.74 2473.33 796.74S2535.16 785.84 2590.3 785.84S2652.98 775.58 2707.27 775.58L2686 953 L-100 953 Z"></animate>
  <animateTransform attributeName="transform" type="translate" dur="300s" begin="-136.36363636363637s" repeatCount="indefinite" values="0;10;0" calcMode="spline" keySplines="0.3 0 0.7 1;0.3 0 0.7 1"></animateTransform>
</path><path d="M-100 858.76C-39.32 826.11 -35.77 843.98 20.18 843.98S82.34 833.03 140.36 833.03S204.85 835.93 260.54 835.93S324.68 839.52 380.72 839.52S443.93 853.44 500.9 853.44S561.84 833.34 621.08 833.34S682.26 821.07 741.26 821.07S803.93 854.87 861.44 854.87S923.09 859.69 981.62 859.69S1044.91 822.32 1101.8 822.32S1162.09 826.01 1221.98 826.01S1284.15 795.95 1342.16 795.95S1402.79 867.33 1462.35 867.33S1525.07 814.99 1582.53 814.99S1645.42 823.75 1702.71 823.75S1765.87 810.64 1822.89 810.64S1885.03 849.81 1943.07 849.81S2007.22 836.95 2063.25 836.95S2127.08 831.82 2183.43 831.82S2247.63 842.88 2303.61 842.88S2368.17 836.96 2423.79 836.96S2488.41 810.53 2543.97 810.53S2608.57 838.05 2664.15 838.05S2728.09 791.36 2784.33 791.36L2686 953 L-100 953 Z" fill="#0079ad" stroke-width="0">
  <animate attributeName="d" dur="250s" repeatCount="indefinite" values="M-100 858.76C-39.32 826.11 -35.77 843.98 20.18 843.98S82.34 833.03 140.36 833.03S204.85 835.93 260.54 835.93S324.68 839.52 380.72 839.52S443.93 853.44 500.9 853.44S561.84 833.34 621.08 833.34S682.26 821.07 741.26 821.07S803.93 854.87 861.44 854.87S923.09 859.69 981.62 859.69S1044.91 822.32 1101.8 822.32S1162.09 826.01 1221.98 826.01S1284.15 795.95 1342.16 795.95S1402.79 867.33 1462.35 867.33S1525.07 814.99 1582.53 814.99S1645.42 823.75 1702.71 823.75S1765.87 810.64 1822.89 810.64S1885.03 849.81 1943.07 849.81S2007.22 836.95 2063.25 836.95S2127.08 831.82 2183.43 831.82S2247.63 842.88 2303.61 842.88S2368.17 836.96 2423.79 836.96S2488.41 810.53 2543.97 810.53S2608.57 838.05 2664.15 838.05S2728.09 791.36 2784.33 791.36L2686 953 L-100 953 Z;M-100 826.53C-37.18 803.91 -39.63 828.66 20.18 828.66S81.77 855.12 140.36 855.12S202.59 825.38 260.54 825.38S322.37 806.67 380.72 806.67S444.99 851.79 500.9 851.79S563.21 811 621.08 811S684.84 863.76 741.26 863.76S804.78 813.75 861.44 813.75S923.07 847.39 981.62 847.39S1044.38 809.04 1101.8 809.04S1163.92 803.65 1221.98 803.65S1284.26 817.98 1342.16 817.98S1404.98 846.42 1462.35 846.42S1525.73 828.04 1582.53 828.04S1645.18 842.58 1702.71 842.58S1763.63 808.59 1822.89 808.59S1885.89 839.57 1943.07 839.57S2005.34 820.99 2063.25 820.99S2123.85 813.56 2183.43 813.56S2246.92 834.06 2303.61 834.06S2365.88 818.17 2423.79 818.17S2488.16 828.99 2543.97 828.99S2607.35 853.32 2664.15 853.32S2728.62 797.2 2784.33 797.2L2686 953 L-100 953 Z;M-100 858.76C-39.32 826.11 -35.77 843.98 20.18 843.98S82.34 833.03 140.36 833.03S204.85 835.93 260.54 835.93S324.68 839.52 380.72 839.52S443.93 853.44 500.9 853.44S561.84 833.34 621.08 833.34S682.26 821.07 741.26 821.07S803.93 854.87 861.44 854.87S923.09 859.69 981.62 859.69S1044.91 822.32 1101.8 822.32S1162.09 826.01 1221.98 826.01S1284.15 795.95 1342.16 795.95S1402.79 867.33 1462.35 867.33S1525.07 814.99 1582.53 814.99S1645.42 823.75 1702.71 823.75S1765.87 810.64 1822.89 810.64S1885.03 849.81 1943.07 849.81S2007.22 836.95 2063.25 836.95S2127.08 831.82 2183.43 831.82S2247.63 842.88 2303.61 842.88S2368.17 836.96 2423.79 836.96S2488.41 810.53 2543.97 810.53S2608.57 838.05 2664.15 838.05S2728.09 791.36 2784.33 791.36L2686 953 L-100 953 Z"></animate>
  <animateTransform attributeName="transform" type="translate" dur="250s" begin="-136.36363636363637s" repeatCount="indefinite" values="0;10;0" calcMode="spline" keySplines="0.3 0 0.7 1;0.3 0 0.7 1"></animateTransform>
</path><path d="M-100 847.99C-37.07 829.1 -36.91 849.26 23.57 849.26S87.78 834.14 147.15 834.14S209.31 853.92 270.72 853.92S333.38 839.81 394.29 839.81S457.48 888.59 517.86 888.59S579.92 876.41 641.44 876.41S703.42 826.18 765.01 826.18S828.5 853.71 888.58 853.71S950.51 853.39 1012.15 853.39S1074.54 835.8 1135.73 835.8S1198.25 892.6 1259.3 892.6S1322.25 855.94 1382.87 855.94S1447.2 858.74 1506.44 858.74S1570.6 823.19 1630.02 823.19S1695.85 883.83 1753.59 883.83S1818.12 809.59 1877.16 809.59S1943.21 893.9 2000.73 893.9S2066.09 834.71 2124.31 834.71S2186.33 876.66 2247.88 876.66S2312.04 868.67 2371.45 868.67S2434.27 887.81 2495.02 887.81S2557.04 837.5 2618.6 837.5S2682.35 849.58 2742.17 849.58L2686 953 L-100 953 Z" fill="#0071a9" stroke-width="0">
  <animate attributeName="d" dur="200s" repeatCount="indefinite" values="M-100 847.99C-37.07 829.1 -36.91 849.26 23.57 849.26S87.78 834.14 147.15 834.14S209.31 853.92 270.72 853.92S333.38 839.81 394.29 839.81S457.48 888.59 517.86 888.59S579.92 876.41 641.44 876.41S703.42 826.18 765.01 826.18S828.5 853.71 888.58 853.71S950.51 853.39 1012.15 853.39S1074.54 835.8 1135.73 835.8S1198.25 892.6 1259.3 892.6S1322.25 855.94 1382.87 855.94S1447.2 858.74 1506.44 858.74S1570.6 823.19 1630.02 823.19S1695.85 883.83 1753.59 883.83S1818.12 809.59 1877.16 809.59S1943.21 893.9 2000.73 893.9S2066.09 834.71 2124.31 834.71S2186.33 876.66 2247.88 876.66S2312.04 868.67 2371.45 868.67S2434.27 887.81 2495.02 887.81S2557.04 837.5 2618.6 837.5S2682.35 849.58 2742.17 849.58L2686 953 L-100 953 Z;M-100 809.6C-37.82 812.34 -36.05 886.55 23.57 886.55S89.28 832.97 147.15 832.97S210.17 892.42 270.72 892.42S332.63 851.4 394.29 851.4S456.7 892.64 517.86 892.64S580.17 837.21 641.44 837.21S705.99 864.65 765.01 864.65S827.25 833.53 888.58 833.53S951.39 863.61 1012.15 863.61S1075.56 828.41 1135.73 828.41S1199.06 883.48 1259.3 883.48S1323.68 894.27 1382.87 894.27S1447.05 880.46 1506.44 880.46S1570.65 810.37 1630.02 810.37S1694.75 868.45 1753.59 868.45S1819.95 846.14 1877.16 846.14S1942.71 852.32 2000.73 852.32S2063.52 879.76 2124.31 879.76S2186.32 855.51 2247.88 855.51S2311.78 809.22 2371.45 809.22S2435.46 846.77 2495.02 846.77S2558.53 859.48 2618.6 859.48S2682.44 885.21 2742.17 885.21L2686 953 L-100 953 Z;M-100 847.99C-37.07 829.1 -36.91 849.26 23.57 849.26S87.78 834.14 147.15 834.14S209.31 853.92 270.72 853.92S333.38 839.81 394.29 839.81S457.48 888.59 517.86 888.59S579.92 876.41 641.44 876.41S703.42 826.18 765.01 826.18S828.5 853.71 888.58 853.71S950.51 853.39 1012.15 853.39S1074.54 835.8 1135.73 835.8S1198.25 892.6 1259.3 892.6S1322.25 855.94 1382.87 855.94S1447.2 858.74 1506.44 858.74S1570.6 823.19 1630.02 823.19S1695.85 883.83 1753.59 883.83S1818.12 809.59 1877.16 809.59S1943.21 893.9 2000.73 893.9S2066.09 834.71 2124.31 834.71S2186.33 876.66 2247.88 876.66S2312.04 868.67 2371.45 868.67S2434.27 887.81 2495.02 887.81S2557.04 837.5 2618.6 837.5S2682.35 849.58 2742.17 849.58L2686 953 L-100 953 Z"></animate>
  <animateTransform attributeName="transform" type="translate" dur="200s" begin="-127.27272727272727s" repeatCount="indefinite" values="0;10;0" calcMode="spline" keySplines="0.3 0 0.7 1;0.3 0 0.7 1"></animateTransform>
</path><path d="M-100 869.73C-34.32 875.34 -32.58 847.18 27.16 847.18S94.49 853.63 154.32 853.63S221.51 877.81 281.49 877.81S346.43 866.98 408.65 866.98S475.81 921.37 535.81 921.37S602.72 910.49 662.97 910.49S727.64 859.84 790.13 859.84S856.58 852.9 917.29 852.9S983.68 855.01 1044.46 855.01S1111.42 879.05 1171.62 879.05S1238.4 883.87 1298.78 883.87S1365.11 859.86 1425.94 859.86S1491.81 867.6 1553.1 867.6S1617.01 837.29 1680.27 837.29S1744.42 893.93 1807.43 893.93S1872.38 875.87 1934.59 875.87S1998.59 916.16 2061.75 916.16S2128.2 871.29 2188.91 871.29S2256.73 898.87 2316.07 898.87S2380.93 862.72 2443.24 862.72S2510.04 900.07 2570.4 900.07S2637.27 872.59 2697.56 872.59L2686 953 L-100 953 Z" fill="#006aa4" stroke-width="0">
  <animate attributeName="d" dur="150s" repeatCount="indefinite" values="M-100 869.73C-34.32 875.34 -32.58 847.18 27.16 847.18S94.49 853.63 154.32 853.63S221.51 877.81 281.49 877.81S346.43 866.98 408.65 866.98S475.81 921.37 535.81 921.37S602.72 910.49 662.97 910.49S727.64 859.84 790.13 859.84S856.58 852.9 917.29 852.9S983.68 855.01 1044.46 855.01S1111.42 879.05 1171.62 879.05S1238.4 883.87 1298.78 883.87S1365.11 859.86 1425.94 859.86S1491.81 867.6 1553.1 867.6S1617.01 837.29 1680.27 837.29S1744.42 893.93 1807.43 893.93S1872.38 875.87 1934.59 875.87S1998.59 916.16 2061.75 916.16S2128.2 871.29 2188.91 871.29S2256.73 898.87 2316.07 898.87S2380.93 862.72 2443.24 862.72S2510.04 900.07 2570.4 900.07S2637.27 872.59 2697.56 872.59L2686 953 L-100 953 Z;M-100 845C-36.11 866.89 -35.31 842.27 27.16 842.27S94.9 833.4 154.32 833.4S221.98 873.49 281.49 873.49S345.2 871.04 408.65 871.04S474.11 919.38 535.81 919.38S601.87 841.06 662.97 841.06S728.68 898.62 790.13 898.62S853.83 873.15 917.29 873.15S983.91 844.17 1044.46 844.17S1109.37 897.81 1171.62 897.81S1236.88 883.45 1298.78 883.45S1366.58 867.22 1425.94 867.22S1490.56 892.3 1553.1 892.3S1617.89 872.94 1680.27 872.94S1747.14 868.99 1807.43 868.99S1873.41 892.66 1934.59 892.66S2002.2 837.66 2061.75 837.66S2128.97 873.22 2188.91 873.22S2257.11 921.69 2316.07 921.69S2383.34 862.31 2443.24 862.31S2509.19 892.09 2570.4 892.09S2638.53 893.66 2697.56 893.66L2686 953 L-100 953 Z;M-100 869.73C-34.32 875.34 -32.58 847.18 27.16 847.18S94.49 853.63 154.32 853.63S221.51 877.81 281.49 877.81S346.43 866.98 408.65 866.98S475.81 921.37 535.81 921.37S602.72 910.49 662.97 910.49S727.64 859.84 790.13 859.84S856.58 852.9 917.29 852.9S983.68 855.01 1044.46 855.01S1111.42 879.05 1171.62 879.05S1238.4 883.87 1298.78 883.87S1365.11 859.86 1425.94 859.86S1491.81 867.6 1553.1 867.6S1617.01 837.29 1680.27 837.29S1744.42 893.93 1807.43 893.93S1872.38 875.87 1934.59 875.87S1998.59 916.16 2061.75 916.16S2128.2 871.29 2188.91 871.29S2256.73 898.87 2316.07 898.87S2380.93 862.72 2443.24 862.72S2510.04 900.07 2570.4 900.07S2637.27 872.59 2697.56 872.59L2686 953 L-100 953 Z"></animate>
  <animateTransform attributeName="transform" type="translate" dur="150s" begin="-109.0909090909091s" repeatCount="indefinite" values="0;10;0" calcMode="spline" keySplines="0.3 0 0.7 1;0.3 0 0.7 1"></animateTransform>
</path><path d="M-100 941.35C-32.82 936.56 -33.34 934.64 30.97 934.64S100.46 856.97 161.93 856.97S231.28 914.75 292.9 914.75S359.17 947.44 423.86 947.44S492.58 909.79 554.83 909.79S623.72 884.02 685.79 884.02S754.71 947.99 816.76 947.99S882.6 892.37 947.73 892.37S1013.59 909.08 1078.69 909.08S1146.77 895.14 1209.66 895.14S1277 944.36 1340.62 944.36S1407.86 859.64 1471.59 859.64S1538.59 922.93 1602.56 922.93S1671.33 893.77 1733.52 893.77S1800.62 925.54 1864.49 925.54S1934.25 928.35 1995.45 928.35S2063.1 932.8 2126.42 932.8S2193.25 863.14 2257.38 863.14S2325.97 866.79 2388.35 866.79S2457.49 883.69 2519.32 883.69S2588.34 939.95 2650.28 939.95S2720.37 937.04 2781.25 937.04L2686 953 L-100 953 Z" fill="#00639e" stroke-width="0">
  <animate attributeName="d" dur="100s" repeatCount="indefinite" values="M-100 941.35C-32.82 936.56 -33.34 934.64 30.97 934.64S100.46 856.97 161.93 856.97S231.28 914.75 292.9 914.75S359.17 947.44 423.86 947.44S492.58 909.79 554.83 909.79S623.72 884.02 685.79 884.02S754.71 947.99 816.76 947.99S882.6 892.37 947.73 892.37S1013.59 909.08 1078.69 909.08S1146.77 895.14 1209.66 895.14S1277 944.36 1340.62 944.36S1407.86 859.64 1471.59 859.64S1538.59 922.93 1602.56 922.93S1671.33 893.77 1733.52 893.77S1800.62 925.54 1864.49 925.54S1934.25 928.35 1995.45 928.35S2063.1 932.8 2126.42 932.8S2193.25 863.14 2257.38 863.14S2325.97 866.79 2388.35 866.79S2457.49 883.69 2519.32 883.69S2588.34 939.95 2650.28 939.95S2720.37 937.04 2781.25 937.04L2686 953 L-100 953 Z;M-100 881.47C-31.58 867.86 -33.17 871.47 30.97 871.47S98.17 888.7 161.93 888.7S231.02 924.36 292.9 924.36S360.05 862.43 423.86 862.43S490.6 904.97 554.83 904.97S623.42 932.26 685.79 932.26S752.29 933.72 816.76 933.72S886.36 855.87 947.73 855.87S1016.08 919.72 1078.69 919.72S1146.35 944.71 1209.66 944.71S1276.39 930.23 1340.62 930.23S1409.46 916.12 1471.59 916.12S1539.97 897.47 1602.56 897.47S1669.01 948.07 1733.52 948.07S1802.12 865.86 1864.49 865.86S1931.91 854.03 1995.45 854.03S2063.07 933.41 2126.42 933.41S2194.2 889.52 2257.38 889.52S2327.15 945.96 2388.35 945.96S2457.95 873.72 2519.32 873.72S2586.27 911.27 2650.28 911.27S2718.71 904.6 2781.25 904.6L2686 953 L-100 953 Z;M-100 941.35C-32.82 936.56 -33.34 934.64 30.97 934.64S100.46 856.97 161.93 856.97S231.28 914.75 292.9 914.75S359.17 947.44 423.86 947.44S492.58 909.79 554.83 909.79S623.72 884.02 685.79 884.02S754.71 947.99 816.76 947.99S882.6 892.37 947.73 892.37S1013.59 909.08 1078.69 909.08S1146.77 895.14 1209.66 895.14S1277 944.36 1340.62 944.36S1407.86 859.64 1471.59 859.64S1538.59 922.93 1602.56 922.93S1671.33 893.77 1733.52 893.77S1800.62 925.54 1864.49 925.54S1934.25 928.35 1995.45 928.35S2063.1 932.8 2126.42 932.8S2193.25 863.14 2257.38 863.14S2325.97 866.79 2388.35 866.79S2457.49 883.69 2519.32 883.69S2588.34 939.95 2650.28 939.95S2720.37 937.04 2781.25 937.04L2686 953 L-100 953 Z"></animate>
  <animateTransform attributeName="transform" type="translate" dur="100s" begin="-81.81818181818181s" repeatCount="indefinite" values="0;10;0" calcMode="spline" keySplines="0.3 0 0.7 1;0.3 0 0.7 1"></animateTransform>
</path><path d="M-100 885.32C-32.26 894.51 -30.46 886.75 35 886.75S105.48 974.26 170.01 974.26S238.05 944.55 305.01 944.55S372.66 902.97 440.02 902.97S511.93 965.43 575.02 965.43S646.12 884.66 710.03 884.66S780.29 952.58 845.03 952.58S914.27 930.94 980.04 930.94S1049.4 913.69 1115.04 913.69S1186.87 882.88 1250.04 882.88S1321.59 946.13 1385.05 946.13S1453.74 882.08 1520.05 882.08S1590.3 946.94 1655.06 946.94S1723.59 932.55 1790.06 932.55S1861.73 942.16 1925.07 942.16S1994.28 915.77 2060.07 915.77S2130.77 971.55 2195.07 971.55S2263.9 972.16 2330.08 972.16S2400.47 882.9 2465.08 882.9S2533.82 911.67 2600.09 911.67S2668.5 895.39 2735.09 895.39L2686 953 L-100 953 Z" fill="#005b99" stroke-width="0">
  <animate attributeName="d" dur="50s" repeatCount="indefinite" values="M-100 885.32C-32.26 894.51 -30.46 886.75 35 886.75S105.48 974.26 170.01 974.26S238.05 944.55 305.01 944.55S372.66 902.97 440.02 902.97S511.93 965.43 575.02 965.43S646.12 884.66 710.03 884.66S780.29 952.58 845.03 952.58S914.27 930.94 980.04 930.94S1049.4 913.69 1115.04 913.69S1186.87 882.88 1250.04 882.88S1321.59 946.13 1385.05 946.13S1453.74 882.08 1520.05 882.08S1590.3 946.94 1655.06 946.94S1723.59 932.55 1790.06 932.55S1861.73 942.16 1925.07 942.16S1994.28 915.77 2060.07 915.77S2130.77 971.55 2195.07 971.55S2263.9 972.16 2330.08 972.16S2400.47 882.9 2465.08 882.9S2533.82 911.67 2600.09 911.67S2668.5 895.39 2735.09 895.39L2686 953 L-100 953 Z;M-100 888.31C-29.4 885.72 -30.71 961.64 35 961.64S103.87 907.41 170.01 907.41S238.62 911.27 305.01 911.27S372.72 878.53 440.02 878.53S510.67 930.02 575.02 930.02S644.43 886.93 710.03 886.93S777.79 947.35 845.03 947.35S916.32 900.08 980.04 900.08S1050.17 958.25 1115.04 958.25S1182.69 959.75 1250.04 959.75S1317.88 953.75 1385.05 953.75S1454.51 909.38 1520.05 909.38S1591.17 947.27 1655.06 947.27S1724.27 887.02 1790.06 887.02S1859.47 936.48 1925.07 936.48S1996.76 914.13 2060.07 914.13S2131.75 935.31 2195.07 935.31S2266.26 933.19 2330.08 933.19S2401.24 907.38 2465.08 907.38S2534.62 912.77 2600.09 912.77S2668.79 949.93 2735.09 949.93L2686 953 L-100 953 Z;M-100 885.32C-32.26 894.51 -30.46 886.75 35 886.75S105.48 974.26 170.01 974.26S238.05 944.55 305.01 944.55S372.66 902.97 440.02 902.97S511.93 965.43 575.02 965.43S646.12 884.66 710.03 884.66S780.29 952.58 845.03 952.58S914.27 930.94 980.04 930.94S1049.4 913.69 1115.04 913.69S1186.87 882.88 1250.04 882.88S1321.59 946.13 1385.05 946.13S1453.74 882.08 1520.05 882.08S1590.3 946.94 1655.06 946.94S1723.59 932.55 1790.06 932.55S1861.73 942.16 1925.07 942.16S1994.28 915.77 2060.07 915.77S2130.77 971.55 2195.07 971.55S2263.9 972.16 2330.08 972.16S2400.47 882.9 2465.08 882.9S2533.82 911.67 2600.09 911.67S2668.5 895.39 2735.09 895.39L2686 953 L-100 953 Z"></animate>
  <animateTransform attributeName="transform" type="translate" dur="50s" begin="-45.45454545454545s" repeatCount="indefinite" values="0;10;0" calcMode="spline" keySplines="0.3 0 0.7 1;0.3 0 0.7 1"></animateTransform>
</path></g>
</svg>