<?xml version="1.0" encoding="utf-8"?>
<svg xmlns="http://www.w3.org/2000/svg" xmlns:xlink="http://www.w3.org/1999/xlink" style="margin: auto; background: rgb(241, 242, 243); display: block; z-index: 1; position: relative; shape-rendering: auto;" width="2586" height="1551" preserveAspectRatio="xMidYMid" viewBox="0 0 2586 1551">
<g transform="translate(1293,775.5) scale(1,1) translate(-1293,-775.5)"><path d="M-100 1081.92C-44.43 1069.82 -44.06 1057.12 3.19 1057.12S59.11 1061.23 106.37 1061.23S158.79 1063.19 209.56 1063.19S262.19 1041.54 312.74 1041.54S366.11 1083 415.93 1083S469.73 1049.34 519.11 1049.34S571.09 1042.39 622.3 1042.39S674.25 1053.19 725.48 1053.19S779.62 1060.75 828.67 1060.75S883.37 1075.52 931.85 1075.52S988.27 1055.22 1035.04 1055.22S1090.53 1077.65 1138.22 1077.65S1194.65 1045.11 1241.41 1045.11S1294.28 1046.45 1344.59 1046.45S1399.95 1052.17 1447.78 1052.17S1503.95 1054.53 1550.96 1054.53S1603.48 1075.41 1654.15 1075.41S1708.1 1086.07 1757.33 1086.07S1811.82 1067.66 1860.52 1067.66S1915.42 1047.62 1963.7 1047.62S2015.86 1078.63 2066.89 1078.63S2121.72 1082.76 2170.07 1082.76S2223.27 1052.07 2273.26 1052.07S2328.19 1047.23 2376.44 1047.23S2430.43 1056.88 2479.63 1056.88S2532.69 1086.43 2582.81 1086.43S2636.33 1050.81 2686 1050.81S2741.98 1040.96 2789.19 1040.96L2686 1551 L-100 1551 Z" fill="#07a5c4" stroke-width="0">
  <animate attributeName="d" dur="5.633802816901409s" repeatCount="indefinite" values="M-100 1081.92C-44.43 1069.82 -44.06 1057.12 3.19 1057.12S59.11 1061.23 106.37 1061.23S158.79 1063.19 209.56 1063.19S262.19 1041.54 312.74 1041.54S366.11 1083 415.93 1083S469.73 1049.34 519.11 1049.34S571.09 1042.39 622.3 1042.39S674.25 1053.19 725.48 1053.19S779.62 1060.75 828.67 1060.75S883.37 1075.52 931.85 1075.52S988.27 1055.22 1035.04 1055.22S1090.53 1077.65 1138.22 1077.65S1194.65 1045.11 1241.41 1045.11S1294.28 1046.45 1344.59 1046.45S1399.95 1052.17 1447.78 1052.17S1503.95 1054.53 1550.96 1054.53S1603.48 1075.41 1654.15 1075.41S1708.1 1086.07 1757.33 1086.07S1811.82 1067.66 1860.52 1067.66S1915.42 1047.62 1963.7 1047.62S2015.86 1078.63 2066.89 1078.63S2121.72 1082.76 2170.07 1082.76S2223.27 1052.07 2273.26 1052.07S2328.19 1047.23 2376.44 1047.23S2430.43 1056.88 2479.63 1056.88S2532.69 1086.43 2582.81 1086.43S2636.33 1050.81 2686 1050.81S2741.98 1040.96 2789.19 1040.96L2686 1551 L-100 1551 Z;M-100 1064.81C-43.79 1047.6 -44.85 1080.77 3.19 1080.77S58.95 1078.52 106.37 1078.52S158.17 1062.82 209.56 1062.82S262.22 1062.37 312.74 1062.37S368.63 1050.17 415.93 1050.17S470.52 1055.07 519.11 1055.07S573.22 1040.69 622.3 1040.69S674.38 1086.72 725.48 1086.72S777.36 1078.21 828.67 1078.21S883.47 1051.39 931.85 1051.39S987.31 1045.35 1035.04 1045.35S1090.48 1072.19 1138.22 1072.19S1190.91 1081.95 1241.41 1081.95S1297.18 1078.57 1344.59 1078.57S1397.13 1071.37 1447.78 1071.37S1502.68 1069.35 1550.96 1069.35S1607.28 1053.47 1654.15 1053.47S1708.59 1042.44 1757.33 1042.44S1812.95 1049.01 1860.52 1049.01S1915.8 1039.53 1963.7 1039.53S2017.84 1063.33 2066.89 1063.33S2119.3 1047.06 2170.07 1047.06S2222.13 1081.16 2273.26 1081.16S2329.67 1081.25 2376.44 1081.25S2431.44 1070.33 2479.63 1070.33S2536.02 1056.34 2582.81 1056.34S2638.57 1085.9 2686 1085.9S2742.2 1070.53 2789.19 1070.53L2686 1551 L-100 1551 Z;M-100 1081.92C-44.43 1069.82 -44.06 1057.12 3.19 1057.12S59.11 1061.23 106.37 1061.23S158.79 1063.19 209.56 1063.19S262.19 1041.54 312.74 1041.54S366.11 1083 415.93 1083S469.73 1049.34 519.11 1049.34S571.09 1042.39 622.3 1042.39S674.25 1053.19 725.48 1053.19S779.62 1060.75 828.67 1060.75S883.37 1075.52 931.85 1075.52S988.27 1055.22 1035.04 1055.22S1090.53 1077.65 1138.22 1077.65S1194.65 1045.11 1241.41 1045.11S1294.28 1046.45 1344.59 1046.45S1399.95 1052.17 1447.78 1052.17S1503.95 1054.53 1550.96 1054.53S1603.48 1075.41 1654.15 1075.41S1708.1 1086.07 1757.33 1086.07S1811.82 1067.66 1860.52 1067.66S1915.42 1047.62 1963.7 1047.62S2015.86 1078.63 2066.89 1078.63S2121.72 1082.76 2170.07 1082.76S2223.27 1052.07 2273.26 1052.07S2328.19 1047.23 2376.44 1047.23S2430.43 1056.88 2479.63 1056.88S2532.69 1086.43 2582.81 1086.43S2636.33 1050.81 2686 1050.81S2741.98 1040.96 2789.19 1040.96L2686 1551 L-100 1551 Z"></animate>
  <animateTransform attributeName="transform" type="translate" dur="5.633802816901409s" begin="0s" repeatCount="indefinite" values="0;10;0" calcMode="spline" keySplines="0.3 0 0.7 1;0.3 0 0.7 1"></animateTransform>
</path><path d="M-100 1113.35C-46.29 1120.39 -42.63 1129.16 6.64 1129.16S63.22 1092.66 113.28 1092.66S167.92 1131.35 219.92 1131.35S276.74 1111.21 326.56 1111.21S382.44 1105.44 433.21 1105.44S488.41 1129.28 539.85 1129.28S595.65 1108.82 646.49 1108.82S704.59 1125.28 753.13 1125.28S806.82 1142.6 859.77 1142.6S914.9 1095.52 966.41 1095.52S1019.9 1116.55 1073.05 1116.55S1130.56 1143.38 1179.69 1143.38S1234.37 1129.18 1286.33 1129.18S1340.72 1115.51 1392.98 1115.51S1448.26 1100.36 1499.62 1100.36S1554.17 1090.07 1606.26 1090.07S1662.8 1144.28 1712.9 1144.28S1769.38 1096.21 1819.54 1096.21S1872.95 1106.87 1926.18 1106.87S1980.73 1118.96 2032.82 1118.96S2088.98 1122.96 2139.46 1122.96S2197.37 1120.32 2246.11 1120.32S2300.33 1104.17 2352.75 1104.17S2410.9 1093.88 2459.39 1093.88S2515.68 1120.37 2566.03 1120.37S2623.57 1125.07 2672.67 1125.07S2726.9 1128.54 2779.31 1128.54L2686 1551 L-100 1551 Z" fill="#009bc0" stroke-width="0">
  <animate attributeName="d" dur="4.929577464788733s" repeatCount="indefinite" values="M-100 1113.35C-46.29 1120.39 -42.63 1129.16 6.64 1129.16S63.22 1092.66 113.28 1092.66S167.92 1131.35 219.92 1131.35S276.74 1111.21 326.56 1111.21S382.44 1105.44 433.21 1105.44S488.41 1129.28 539.85 1129.28S595.65 1108.82 646.49 1108.82S704.59 1125.28 753.13 1125.28S806.82 1142.6 859.77 1142.6S914.9 1095.52 966.41 1095.52S1019.9 1116.55 1073.05 1116.55S1130.56 1143.38 1179.69 1143.38S1234.37 1129.18 1286.33 1129.18S1340.72 1115.51 1392.98 1115.51S1448.26 1100.36 1499.62 1100.36S1554.17 1090.07 1606.26 1090.07S1662.8 1144.28 1712.9 1144.28S1769.38 1096.21 1819.54 1096.21S1872.95 1106.87 1926.18 1106.87S1980.73 1118.96 2032.82 1118.96S2088.98 1122.96 2139.46 1122.96S2197.37 1120.32 2246.11 1120.32S2300.33 1104.17 2352.75 1104.17S2410.9 1093.88 2459.39 1093.88S2515.68 1120.37 2566.03 1120.37S2623.57 1125.07 2672.67 1125.07S2726.9 1128.54 2779.31 1128.54L2686 1551 L-100 1551 Z;M-100 1100.75C-43.1 1096.87 -44.41 1129.28 6.64 1129.28S60.12 1094.39 113.28 1094.39S170.9 1104.38 219.92 1104.38S274.51 1118.36 326.56 1118.36S382.4 1115.84 433.21 1115.84S488.57 1130.24 539.85 1130.24S594.64 1107.24 646.49 1107.24S699.91 1091.22 753.13 1091.22S807.48 1132.99 859.77 1132.99S913.17 1093.55 966.41 1093.55S1020.9 1103 1073.05 1103S1129.17 1130.67 1179.69 1130.67S1233.61 1132.09 1286.33 1132.09S1343.47 1107.79 1392.98 1107.79S1450.32 1127.75 1499.62 1127.75S1554.5 1107.77 1606.26 1107.77S1662.91 1116.74 1712.9 1116.74S1768.63 1131.14 1819.54 1131.14S1875.13 1140.33 1926.18 1140.33S1983.72 1091.21 2032.82 1091.21S2088 1100.48 2139.46 1100.48S2193.92 1096.47 2246.11 1096.47S2301.12 1138.92 2352.75 1138.92S2409.66 1112.06 2459.39 1112.06S2514.67 1145.8 2566.03 1145.8S2620.58 1132.62 2672.67 1132.62S2727.49 1100.47 2779.31 1100.47L2686 1551 L-100 1551 Z;M-100 1113.35C-46.29 1120.39 -42.63 1129.16 6.64 1129.16S63.22 1092.66 113.28 1092.66S167.92 1131.35 219.92 1131.35S276.74 1111.21 326.56 1111.21S382.44 1105.44 433.21 1105.44S488.41 1129.28 539.85 1129.28S595.65 1108.82 646.49 1108.82S704.59 1125.28 753.13 1125.28S806.82 1142.6 859.77 1142.6S914.9 1095.52 966.41 1095.52S1019.9 1116.55 1073.05 1116.55S1130.56 1143.38 1179.69 1143.38S1234.37 1129.18 1286.33 1129.18S1340.72 1115.51 1392.98 1115.51S1448.26 1100.36 1499.62 1100.36S1554.17 1090.07 1606.26 1090.07S1662.8 1144.28 1712.9 1144.28S1769.38 1096.21 1819.54 1096.21S1872.95 1106.87 1926.18 1106.87S1980.73 1118.96 2032.82 1118.96S2088.98 1122.96 2139.46 1122.96S2197.37 1120.32 2246.11 1120.32S2300.33 1104.17 2352.75 1104.17S2410.9 1093.88 2459.39 1093.88S2515.68 1120.37 2566.03 1120.37S2623.57 1125.07 2672.67 1125.07S2726.9 1128.54 2779.31 1128.54L2686 1551 L-100 1551 Z"></animate>
  <animateTransform attributeName="transform" type="translate" dur="4.929577464788733s" begin="-0.6161971830985916s" repeatCount="indefinite" values="0;10;0" calcMode="spline" keySplines="0.3 0 0.7 1;0.3 0 0.7 1"></animateTransform>
</path><path d="M-100 1205.7C-44.31 1199.67 -44.48 1167.5 10.34 1167.5S68.09 1177.02 120.67 1177.02S178.55 1205.05 231.01 1205.05S289.09 1146.75 341.35 1146.75S396.56 1169.46 451.68 1169.46S511.3 1161.01 562.02 1161.01S618.69 1170.96 672.36 1170.96S729.4 1173.01 782.69 1173.01S839.38 1189.09 893.03 1189.09S952.39 1179.86 1003.37 1179.86S1062.97 1172.41 1113.7 1172.41S1171.21 1207.58 1224.04 1207.58S1281.13 1183.52 1334.38 1183.52S1390.79 1176.28 1444.71 1176.28S1503.83 1150.61 1555.05 1150.61S1611.08 1171.44 1665.39 1171.44S1724.88 1192.22 1775.72 1192.22S1831.81 1153.63 1886.06 1153.63S1941.26 1167.73 1996.4 1167.73S2053.48 1153.63 2106.73 1153.63S2166.69 1187.58 2217.07 1187.58S2275.44 1179.85 2327.41 1179.85S2384.36 1168.55 2437.74 1168.55S2497.25 1144.52 2548.08 1144.52S2605.63 1176.71 2658.42 1176.71S2715.9 1169.77 2768.75 1169.77L2686 1551 L-100 1551 Z" fill="#0091bb" stroke-width="0">
  <animate attributeName="d" dur="4.225352112676057s" repeatCount="indefinite" values="M-100 1205.7C-44.31 1199.67 -44.48 1167.5 10.34 1167.5S68.09 1177.02 120.67 1177.02S178.55 1205.05 231.01 1205.05S289.09 1146.75 341.35 1146.75S396.56 1169.46 451.68 1169.46S511.3 1161.01 562.02 1161.01S618.69 1170.96 672.36 1170.96S729.4 1173.01 782.69 1173.01S839.38 1189.09 893.03 1189.09S952.39 1179.86 1003.37 1179.86S1062.97 1172.41 1113.7 1172.41S1171.21 1207.58 1224.04 1207.58S1281.13 1183.52 1334.38 1183.52S1390.79 1176.28 1444.71 1176.28S1503.83 1150.61 1555.05 1150.61S1611.08 1171.44 1665.39 1171.44S1724.88 1192.22 1775.72 1192.22S1831.81 1153.63 1886.06 1153.63S1941.26 1167.73 1996.4 1167.73S2053.48 1153.63 2106.73 1153.63S2166.69 1187.58 2217.07 1187.58S2275.44 1179.85 2327.41 1179.85S2384.36 1168.55 2437.74 1168.55S2497.25 1144.52 2548.08 1144.52S2605.63 1176.71 2658.42 1176.71S2715.9 1169.77 2768.75 1169.77L2686 1551 L-100 1551 Z;M-100 1140.66C-41.95 1178.04 -40.45 1163.79 10.34 1163.79S65.78 1183.13 120.67 1183.13S177.62 1181.99 231.01 1181.99S287.65 1167.56 341.35 1167.56S398.85 1159.67 451.68 1159.67S511.03 1176.74 562.02 1176.74S621.45 1176.28 672.36 1176.28S727.91 1176.3 782.69 1176.3S837.96 1186.78 893.03 1186.78S951.22 1156.27 1003.37 1156.27S1061.26 1162.08 1113.7 1162.08S1171.23 1142.16 1224.04 1142.16S1283.41 1168.85 1334.38 1168.85S1391.61 1153.26 1444.71 1153.26S1504.04 1192.27 1555.05 1192.27S1611.67 1136.49 1665.39 1136.49S1722.19 1208.1 1775.72 1208.1S1831.9 1162.61 1886.06 1162.61S1942.73 1158.44 1996.4 1158.44S2052.5 1143.31 2106.73 1143.31S2165.14 1160.95 2217.07 1160.95S2274.81 1175.64 2327.41 1175.64S2382.82 1156.72 2437.74 1156.72S2494.19 1165.67 2548.08 1165.67S2604.24 1167.7 2658.42 1167.7S2714.24 1143.69 2768.75 1143.69L2686 1551 L-100 1551 Z;M-100 1205.7C-44.31 1199.67 -44.48 1167.5 10.34 1167.5S68.09 1177.02 120.67 1177.02S178.55 1205.05 231.01 1205.05S289.09 1146.75 341.35 1146.75S396.56 1169.46 451.68 1169.46S511.3 1161.01 562.02 1161.01S618.69 1170.96 672.36 1170.96S729.4 1173.01 782.69 1173.01S839.38 1189.09 893.03 1189.09S952.39 1179.86 1003.37 1179.86S1062.97 1172.41 1113.7 1172.41S1171.21 1207.58 1224.04 1207.58S1281.13 1183.52 1334.38 1183.52S1390.79 1176.28 1444.71 1176.28S1503.83 1150.61 1555.05 1150.61S1611.08 1171.44 1665.39 1171.44S1724.88 1192.22 1775.72 1192.22S1831.81 1153.63 1886.06 1153.63S1941.26 1167.73 1996.4 1167.73S2053.48 1153.63 2106.73 1153.63S2166.69 1187.58 2217.07 1187.58S2275.44 1179.85 2327.41 1179.85S2384.36 1168.55 2437.74 1168.55S2497.25 1144.52 2548.08 1144.52S2605.63 1176.71 2658.42 1176.71S2715.9 1169.77 2768.75 1169.77L2686 1551 L-100 1551 Z"></animate>
  <animateTransform attributeName="transform" type="translate" dur="4.225352112676057s" begin="-1.0563380281690142s" repeatCount="indefinite" values="0;10;0" calcMode="spline" keySplines="0.3 0 0.7 1;0.3 0 0.7 1"></animateTransform>
</path><path d="M-100 1200.58C-38.44 1200.56 -39.83 1264.87 14.3 1264.87S73.45 1199.31 128.59 1199.31S189.21 1267.66 242.89 1267.66S300.44 1220.31 357.19 1220.31S417.48 1235.29 471.49 1235.29S531.43 1190.58 585.78 1190.58S645.85 1252.32 700.08 1252.32S761.82 1190.12 814.38 1190.12S873.01 1259.44 928.68 1259.44S987.79 1222.87 1042.97 1222.87S1102.02 1237.06 1157.27 1237.06S1217.69 1225.94 1271.57 1225.94S1332.04 1228.44 1385.87 1228.44S1444.52 1195.63 1500.16 1195.63S1559.21 1266.39 1614.46 1266.39S1672.53 1209.04 1728.76 1209.04S1787.84 1241.09 1843.06 1241.09S1903.51 1208.59 1957.35 1208.59S2016.87 1240.26 2071.65 1240.26S2128.96 1232.95 2185.95 1232.95S2246.53 1266.73 2300.25 1266.73S2357.53 1189 2414.54 1189S2475.85 1255.93 2528.84 1255.93S2590.51 1193.6 2643.14 1193.6S2701.04 1240.77 2757.44 1240.77L2686 1551 L-100 1551 Z" fill="#0086b5" stroke-width="0">
  <animate attributeName="d" dur="3.5211267605633805s" repeatCount="indefinite" values="M-100 1200.58C-38.44 1200.56 -39.83 1264.87 14.3 1264.87S73.45 1199.31 128.59 1199.31S189.21 1267.66 242.89 1267.66S300.44 1220.31 357.19 1220.31S417.48 1235.29 471.49 1235.29S531.43 1190.58 585.78 1190.58S645.85 1252.32 700.08 1252.32S761.82 1190.12 814.38 1190.12S873.01 1259.44 928.68 1259.44S987.79 1222.87 1042.97 1222.87S1102.02 1237.06 1157.27 1237.06S1217.69 1225.94 1271.57 1225.94S1332.04 1228.44 1385.87 1228.44S1444.52 1195.63 1500.16 1195.63S1559.21 1266.39 1614.46 1266.39S1672.53 1209.04 1728.76 1209.04S1787.84 1241.09 1843.06 1241.09S1903.51 1208.59 1957.35 1208.59S2016.87 1240.26 2071.65 1240.26S2128.96 1232.95 2185.95 1232.95S2246.53 1266.73 2300.25 1266.73S2357.53 1189 2414.54 1189S2475.85 1255.93 2528.84 1255.93S2590.51 1193.6 2643.14 1193.6S2701.04 1240.77 2757.44 1240.77L2686 1551 L-100 1551 Z;M-100 1196.19C-41.85 1194.72 -41.1 1261.64 14.3 1261.64S73.32 1209.87 128.59 1209.87S186.95 1265.68 242.89 1265.68S302.28 1195.14 357.19 1195.14S418.4 1247.56 471.49 1247.56S532.24 1229.53 585.78 1229.53S645.92 1227.95 700.08 1227.95S761.2 1222.46 814.38 1222.46S874.94 1245.7 928.68 1245.7S986.82 1230.88 1042.97 1230.88S1102.49 1231.58 1157.27 1231.58S1215.57 1187.08 1271.57 1187.08S1330.14 1257.32 1385.87 1257.32S1445.21 1215.48 1500.16 1215.48S1561.01 1245.71 1614.46 1245.71S1673.59 1201.23 1728.76 1201.23S1786.48 1225.17 1843.06 1225.17S1902.94 1225.48 1957.35 1225.48S2018.06 1236.76 2071.65 1236.76S2130.22 1186.17 2185.95 1186.17S2246.7 1264.28 2300.25 1264.28S2358.6 1222.03 2414.54 1222.03S2474.91 1249.35 2528.84 1249.35S2586.61 1224.41 2643.14 1224.41S2705.03 1207.67 2757.44 1207.67L2686 1551 L-100 1551 Z;M-100 1200.58C-38.44 1200.56 -39.83 1264.87 14.3 1264.87S73.45 1199.31 128.59 1199.31S189.21 1267.66 242.89 1267.66S300.44 1220.31 357.19 1220.31S417.48 1235.29 471.49 1235.29S531.43 1190.58 585.78 1190.58S645.85 1252.32 700.08 1252.32S761.82 1190.12 814.38 1190.12S873.01 1259.44 928.68 1259.44S987.79 1222.87 1042.97 1222.87S1102.02 1237.06 1157.27 1237.06S1217.69 1225.94 1271.57 1225.94S1332.04 1228.44 1385.87 1228.44S1444.52 1195.63 1500.16 1195.63S1559.21 1266.39 1614.46 1266.39S1672.53 1209.04 1728.76 1209.04S1787.84 1241.09 1843.06 1241.09S1903.51 1208.59 1957.35 1208.59S2016.87 1240.26 2071.65 1240.26S2128.96 1232.95 2185.95 1232.95S2246.53 1266.73 2300.25 1266.73S2357.53 1189 2414.54 1189S2475.85 1255.93 2528.84 1255.93S2590.51 1193.6 2643.14 1193.6S2701.04 1240.77 2757.44 1240.77L2686 1551 L-100 1551 Z"></animate>
  <animateTransform attributeName="transform" type="translate" dur="3.5211267605633805s" begin="-1.3204225352112677s" repeatCount="indefinite" values="0;10;0" calcMode="spline" keySplines="0.3 0 0.7 1;0.3 0 0.7 1"></animateTransform>
</path><path d="M-100 1260.28C-36.59 1262.97 -36.12 1309.61 18.55 1309.61S79.53 1269.5 137.11 1269.5S197.63 1302.98 255.66 1302.98S316.75 1277.27 374.21 1277.27S434.96 1325.62 492.77 1325.62S552.61 1238.36 611.32 1238.36S673.83 1301.99 729.87 1301.99S791.08 1321.26 848.43 1321.26S911.96 1293.92 966.98 1293.92S1026.62 1322.2 1085.53 1322.2S1148.59 1326.59 1204.09 1326.59S1264.59 1278.34 1322.64 1278.34S1384.6 1317.28 1441.19 1317.28S1503.35 1324.87 1559.74 1324.87S1619.09 1301.72 1678.3 1301.72S1737.85 1235.08 1796.85 1235.08S1859.77 1315.23 1915.4 1315.23S1977.39 1233.2 2033.96 1233.2S2095.72 1296.77 2152.51 1296.77S2213.87 1276.19 2271.06 1276.19S2333 1294.6 2389.62 1294.6S2452.95 1244.29 2508.17 1244.29S2570.2 1249.32 2626.72 1249.32S2687.15 1291.83 2745.28 1291.83L2686 1551 L-100 1551 Z" fill="#007cb0" stroke-width="0">
  <animate attributeName="d" dur="2.8169014084507045s" repeatCount="indefinite" values="M-100 1260.28C-36.59 1262.97 -36.12 1309.61 18.55 1309.61S79.53 1269.5 137.11 1269.5S197.63 1302.98 255.66 1302.98S316.75 1277.27 374.21 1277.27S434.96 1325.62 492.77 1325.62S552.61 1238.36 611.32 1238.36S673.83 1301.99 729.87 1301.99S791.08 1321.26 848.43 1321.26S911.96 1293.92 966.98 1293.92S1026.62 1322.2 1085.53 1322.2S1148.59 1326.59 1204.09 1326.59S1264.59 1278.34 1322.64 1278.34S1384.6 1317.28 1441.19 1317.28S1503.35 1324.87 1559.74 1324.87S1619.09 1301.72 1678.3 1301.72S1737.85 1235.08 1796.85 1235.08S1859.77 1315.23 1915.4 1315.23S1977.39 1233.2 2033.96 1233.2S2095.72 1296.77 2152.51 1296.77S2213.87 1276.19 2271.06 1276.19S2333 1294.6 2389.62 1294.6S2452.95 1244.29 2508.17 1244.29S2570.2 1249.32 2626.72 1249.32S2687.15 1291.83 2745.28 1291.83L2686 1551 L-100 1551 Z;M-100 1276.2C-37.5 1274.49 -36.62 1303.33 18.55 1303.33S80.65 1259.1 137.11 1259.1S200.5 1326.32 255.66 1326.32S319.76 1272.07 374.21 1272.07S437.24 1293.35 492.77 1293.35S553.29 1267.05 611.32 1267.05S675.4 1327.89 729.87 1327.89S793.93 1251.15 848.43 1251.15S911.71 1249.73 966.98 1249.73S1029.83 1253.32 1085.53 1253.32S1146.04 1316.29 1204.09 1316.29S1265.53 1275.87 1322.64 1275.87S1385.92 1301.98 1441.19 1301.98S1504.02 1265.55 1559.74 1265.55S1621.9 1314.98 1678.3 1314.98S1741.36 1237.7 1796.85 1237.7S1857.49 1287.53 1915.4 1287.53S1977.46 1247.16 2033.96 1247.16S2094.96 1298.48 2152.51 1298.48S2214.58 1246.4 2271.06 1246.4S2334.59 1299.08 2389.62 1299.08S2451.17 1234 2508.17 1234S2570.42 1328.86 2626.72 1328.86S2686.85 1270.64 2745.28 1270.64L2686 1551 L-100 1551 Z;M-100 1260.28C-36.59 1262.97 -36.12 1309.61 18.55 1309.61S79.53 1269.5 137.11 1269.5S197.63 1302.98 255.66 1302.98S316.75 1277.27 374.21 1277.27S434.96 1325.62 492.77 1325.62S552.61 1238.36 611.32 1238.36S673.83 1301.99 729.87 1301.99S791.08 1321.26 848.43 1321.26S911.96 1293.92 966.98 1293.92S1026.62 1322.2 1085.53 1322.2S1148.59 1326.59 1204.09 1326.59S1264.59 1278.34 1322.64 1278.34S1384.6 1317.28 1441.19 1317.28S1503.35 1324.87 1559.74 1324.87S1619.09 1301.72 1678.3 1301.72S1737.85 1235.08 1796.85 1235.08S1859.77 1315.23 1915.4 1315.23S1977.39 1233.2 2033.96 1233.2S2095.72 1296.77 2152.51 1296.77S2213.87 1276.19 2271.06 1276.19S2333 1294.6 2389.62 1294.6S2452.95 1244.29 2508.17 1244.29S2570.2 1249.32 2626.72 1249.32S2687.15 1291.83 2745.28 1291.83L2686 1551 L-100 1551 Z"></animate>
  <animateTransform attributeName="transform" type="translate" dur="2.8169014084507045s" begin="-1.4084507042253522s" repeatCount="indefinite" values="0;10;0" calcMode="spline" keySplines="0.3 0 0.7 1;0.3 0 0.7 1"></animateTransform>
</path><path d="M-100 1310.65C-34.87 1315.01 -33.82 1369.24 23.14 1369.24S86.66 1320.44 146.28 1320.44S211.39 1382.91 269.41 1382.91S334.68 1281.96 392.55 1281.96S454.55 1347.64 515.69 1347.64S579.53 1315.91 638.83 1315.91S703.48 1387.91 761.97 1387.91S826.32 1388.93 885.1 1388.93S948.53 1361.94 1008.24 1361.94S1072.08 1363.43 1131.38 1363.43S1194.45 1328.07 1254.52 1328.07S1320.29 1295.27 1377.66 1295.27S1440.77 1356.28 1500.8 1356.28S1563.4 1297.89 1623.93 1297.89S1688.16 1376.06 1747.07 1376.06S1809.69 1323.2 1870.21 1323.2S1935.79 1361.24 1993.35 1361.24S2058.44 1283.6 2116.49 1283.6S2181.75 1357.75 2239.62 1357.75S2301.94 1284.83 2362.76 1284.83S2425.62 1379.32 2485.9 1379.32S2552.11 1297.71 2609.04 1297.71S2673.87 1287.42 2732.18 1287.42L2686 1551 L-100 1551 Z" fill="#0072a9" stroke-width="0">
  <animate attributeName="d" dur="2.1126760563380285s" repeatCount="indefinite" values="M-100 1310.65C-34.87 1315.01 -33.82 1369.24 23.14 1369.24S86.66 1320.44 146.28 1320.44S211.39 1382.91 269.41 1382.91S334.68 1281.96 392.55 1281.96S454.55 1347.64 515.69 1347.64S579.53 1315.91 638.83 1315.91S703.48 1387.91 761.97 1387.91S826.32 1388.93 885.1 1388.93S948.53 1361.94 1008.24 1361.94S1072.08 1363.43 1131.38 1363.43S1194.45 1328.07 1254.52 1328.07S1320.29 1295.27 1377.66 1295.27S1440.77 1356.28 1500.8 1356.28S1563.4 1297.89 1623.93 1297.89S1688.16 1376.06 1747.07 1376.06S1809.69 1323.2 1870.21 1323.2S1935.79 1361.24 1993.35 1361.24S2058.44 1283.6 2116.49 1283.6S2181.75 1357.75 2239.62 1357.75S2301.94 1284.83 2362.76 1284.83S2425.62 1379.32 2485.9 1379.32S2552.11 1297.71 2609.04 1297.71S2673.87 1287.42 2732.18 1287.42L2686 1551 L-100 1551 Z;M-100 1325.98C-35.29 1300.19 -37.98 1367.55 23.14 1367.55S87.29 1321.21 146.28 1321.21S209.6 1357.97 269.41 1357.97S334.21 1373.56 392.55 1373.56S457.62 1376.55 515.69 1376.55S577.4 1382.2 638.83 1382.2S700.87 1357.11 761.97 1357.11S825.41 1287.44 885.1 1287.44S948.08 1372.45 1008.24 1372.45S1073.27 1305.8 1131.38 1305.8S1193.46 1368.48 1254.52 1368.48S1316.67 1303.84 1377.66 1303.84S1442.21 1355.53 1500.8 1355.53S1566.42 1308.12 1623.93 1308.12S1686.81 1351.91 1747.07 1351.91S1810.38 1310.27 1870.21 1310.27S1935.29 1343.47 1993.35 1343.47S2055.15 1320.5 2116.49 1320.5S2181.89 1377.2 2239.62 1377.2S2305.67 1299.6 2362.76 1299.6S2427.67 1389.1 2485.9 1389.1S2550.11 1313.46 2609.04 1313.46S2671.13 1343.84 2732.18 1343.84L2686 1551 L-100 1551 Z;M-100 1310.65C-34.87 1315.01 -33.82 1369.24 23.14 1369.24S86.66 1320.44 146.28 1320.44S211.39 1382.91 269.41 1382.91S334.68 1281.96 392.55 1281.96S454.55 1347.64 515.69 1347.64S579.53 1315.91 638.83 1315.91S703.48 1387.91 761.97 1387.91S826.32 1388.93 885.1 1388.93S948.53 1361.94 1008.24 1361.94S1072.08 1363.43 1131.38 1363.43S1194.45 1328.07 1254.52 1328.07S1320.29 1295.27 1377.66 1295.27S1440.77 1356.28 1500.8 1356.28S1563.4 1297.89 1623.93 1297.89S1688.16 1376.06 1747.07 1376.06S1809.69 1323.2 1870.21 1323.2S1935.79 1361.24 1993.35 1361.24S2058.44 1283.6 2116.49 1283.6S2181.75 1357.75 2239.62 1357.75S2301.94 1284.83 2362.76 1284.83S2425.62 1379.32 2485.9 1379.32S2552.11 1297.71 2609.04 1297.71S2673.87 1287.42 2732.18 1287.42L2686 1551 L-100 1551 Z"></animate>
  <animateTransform attributeName="transform" type="translate" dur="2.1126760563380285s" begin="-1.3204225352112677s" repeatCount="indefinite" values="0;10;0" calcMode="spline" keySplines="0.3 0 0.7 1;0.3 0 0.7 1"></animateTransform>
</path><path d="M-100 1332.51C-31.2 1360.8 -34.91 1419.03 28.09 1419.03S93.11 1365.39 156.18 1365.39S224.34 1429.7 284.28 1429.7S352.14 1336.28 412.37 1336.28S477.32 1420.36 540.46 1420.36S605.23 1352.57 668.55 1352.57S735.45 1364.55 796.64 1364.55S864.64 1330.78 924.74 1330.78S990.26 1420.41 1052.83 1420.41S1120.83 1362.96 1180.92 1362.96S1245.63 1403.43 1309.01 1403.43S1376.53 1374.75 1437.1 1374.75S1503.01 1339.17 1565.2 1339.17S1632.44 1355.09 1693.29 1355.09S1761.72 1418.56 1821.38 1418.56S1887.07 1365.98 1949.47 1365.98S2015.37 1425.07 2077.56 1425.07S2144.65 1371.62 2205.66 1371.62S2273.53 1426.77 2333.75 1426.77S2399.9 1344.26 2461.84 1344.26S2528.88 1406.75 2589.93 1406.75S2656.62 1444.4 2718.02 1444.4L2686 1551 L-100 1551 Z" fill="#0068a2" stroke-width="0">
  <animate attributeName="d" dur="1.4084507042253522s" repeatCount="indefinite" values="M-100 1332.51C-31.2 1360.8 -34.91 1419.03 28.09 1419.03S93.11 1365.39 156.18 1365.39S224.34 1429.7 284.28 1429.7S352.14 1336.28 412.37 1336.28S477.32 1420.36 540.46 1420.36S605.23 1352.57 668.55 1352.57S735.45 1364.55 796.64 1364.55S864.64 1330.78 924.74 1330.78S990.26 1420.41 1052.83 1420.41S1120.83 1362.96 1180.92 1362.96S1245.63 1403.43 1309.01 1403.43S1376.53 1374.75 1437.1 1374.75S1503.01 1339.17 1565.2 1339.17S1632.44 1355.09 1693.29 1355.09S1761.72 1418.56 1821.38 1418.56S1887.07 1365.98 1949.47 1365.98S2015.37 1425.07 2077.56 1425.07S2144.65 1371.62 2205.66 1371.62S2273.53 1426.77 2333.75 1426.77S2399.9 1344.26 2461.84 1344.26S2528.88 1406.75 2589.93 1406.75S2656.62 1444.4 2718.02 1444.4L2686 1551 L-100 1551 Z;M-100 1345.77C-33.97 1345.78 -33.33 1417.36 28.09 1417.36S96.65 1367.83 156.18 1367.83S223.67 1441.75 284.28 1441.75S350.84 1376.01 412.37 1376.01S478.06 1404.31 540.46 1404.31S605.83 1350.15 668.55 1350.15S735.8 1432.83 796.64 1432.83S863.37 1376.26 924.74 1376.26S990.19 1413.26 1052.83 1413.26S1119.93 1334.76 1180.92 1334.76S1248.23 1430.23 1309.01 1430.23S1376.77 1367.83 1437.1 1367.83S1502.63 1414.89 1565.2 1414.89S1632.43 1359.5 1693.29 1359.5S1757.93 1422.08 1821.38 1422.08S1890.26 1333.21 1949.47 1333.21S2015.84 1422.55 2077.56 1422.55S2143.03 1347.48 2205.66 1347.48S2273 1437.79 2333.75 1437.79S2401.73 1360.1 2461.84 1360.1S2529.07 1440.28 2589.93 1440.28S2656.33 1374.65 2718.02 1374.65L2686 1551 L-100 1551 Z;M-100 1332.51C-31.2 1360.8 -34.91 1419.03 28.09 1419.03S93.11 1365.39 156.18 1365.39S224.34 1429.7 284.28 1429.7S352.14 1336.28 412.37 1336.28S477.32 1420.36 540.46 1420.36S605.23 1352.57 668.55 1352.57S735.45 1364.55 796.64 1364.55S864.64 1330.78 924.74 1330.78S990.26 1420.41 1052.83 1420.41S1120.83 1362.96 1180.92 1362.96S1245.63 1403.43 1309.01 1403.43S1376.53 1374.75 1437.1 1374.75S1503.01 1339.17 1565.2 1339.17S1632.44 1355.09 1693.29 1355.09S1761.72 1418.56 1821.38 1418.56S1887.07 1365.98 1949.47 1365.98S2015.37 1425.07 2077.56 1425.07S2144.65 1371.62 2205.66 1371.62S2273.53 1426.77 2333.75 1426.77S2399.9 1344.26 2461.84 1344.26S2528.88 1406.75 2589.93 1406.75S2656.62 1444.4 2718.02 1444.4L2686 1551 L-100 1551 Z"></animate>
  <animateTransform attributeName="transform" type="translate" dur="1.4084507042253522s" begin="-1.0563380281690142s" repeatCount="indefinite" values="0;10;0" calcMode="spline" keySplines="0.3 0 0.7 1;0.3 0 0.7 1"></animateTransform>
</path><path d="M-100 1415.3C-29.96 1391.41 -29.41 1473.44 33.46 1473.44S104.96 1387.23 166.92 1387.23S234.92 1493.19 300.38 1493.19S369.25 1415.24 433.84 1415.24S503.96 1419.82 567.31 1419.82S636.14 1486.32 700.77 1486.32S767.79 1469.39 834.23 1469.39S902.49 1412.65 967.69 1412.65S1035.32 1485.67 1101.15 1485.67S1168.75 1405.36 1234.61 1405.36S1305.41 1503.93 1368.07 1503.93S1435.67 1419.46 1501.53 1419.46S1572.03 1379.31 1634.99 1379.31S1703.74 1393.62 1768.46 1393.62S1837.65 1423.83 1901.92 1423.83S1971.08 1468.71 2035.38 1468.71S2104.51 1493.45 2168.84 1493.45S2236.24 1416.2 2302.3 1416.2S2370.64 1471.57 2435.76 1471.57S2505.39 1425.06 2569.22 1425.06S2639.94 1489.2 2702.68 1489.2L2686 1551 L-100 1551 Z" fill="#005e9b" stroke-width="0">
  <animate attributeName="d" dur="0.7042253521126761s" repeatCount="indefinite" values="M-100 1415.3C-29.96 1391.41 -29.41 1473.44 33.46 1473.44S104.96 1387.23 166.92 1387.23S234.92 1493.19 300.38 1493.19S369.25 1415.24 433.84 1415.24S503.96 1419.82 567.31 1419.82S636.14 1486.32 700.77 1486.32S767.79 1469.39 834.23 1469.39S902.49 1412.65 967.69 1412.65S1035.32 1485.67 1101.15 1485.67S1168.75 1405.36 1234.61 1405.36S1305.41 1503.93 1368.07 1503.93S1435.67 1419.46 1501.53 1419.46S1572.03 1379.31 1634.99 1379.31S1703.74 1393.62 1768.46 1393.62S1837.65 1423.83 1901.92 1423.83S1971.08 1468.71 2035.38 1468.71S2104.51 1493.45 2168.84 1493.45S2236.24 1416.2 2302.3 1416.2S2370.64 1471.57 2435.76 1471.57S2505.39 1425.06 2569.22 1425.06S2639.94 1489.2 2702.68 1489.2L2686 1551 L-100 1551 Z;M-100 1384.2C-29.6 1380.93 -31.13 1469.98 33.46 1469.98S103.26 1390.5 166.92 1390.5S236.44 1493.36 300.38 1493.36S368.1 1415.37 433.84 1415.37S503.28 1470.24 567.31 1470.24S634.08 1413.35 700.77 1413.35S768.24 1503.2 834.23 1503.2S904.16 1426.66 967.69 1426.66S1035.75 1476.73 1101.15 1476.73S1169.94 1394.06 1234.61 1394.06S1304.6 1507.64 1368.07 1507.64S1435.24 1505.48 1501.53 1505.48S1571.07 1478.24 1634.99 1478.24S1702.06 1412.89 1768.46 1412.89S1835.37 1477.35 1901.92 1477.35S1972 1423.19 2035.38 1423.19S2104.28 1494.29 2168.84 1494.29S2236.82 1391.53 2302.3 1391.53S2369.66 1502.51 2435.76 1502.51S2505.15 1411.19 2569.22 1411.19S2639.53 1506.49 2702.68 1506.49L2686 1551 L-100 1551 Z;M-100 1415.3C-29.96 1391.41 -29.41 1473.44 33.46 1473.44S104.96 1387.23 166.92 1387.23S234.92 1493.19 300.38 1493.19S369.25 1415.24 433.84 1415.24S503.96 1419.82 567.31 1419.82S636.14 1486.32 700.77 1486.32S767.79 1469.39 834.23 1469.39S902.49 1412.65 967.69 1412.65S1035.32 1485.67 1101.15 1485.67S1168.75 1405.36 1234.61 1405.36S1305.41 1503.93 1368.07 1503.93S1435.67 1419.46 1501.53 1419.46S1572.03 1379.31 1634.99 1379.31S1703.74 1393.62 1768.46 1393.62S1837.65 1423.83 1901.92 1423.83S1971.08 1468.71 2035.38 1468.71S2104.51 1493.45 2168.84 1493.45S2236.24 1416.2 2302.3 1416.2S2370.64 1471.57 2435.76 1471.57S2505.39 1425.06 2569.22 1425.06S2639.94 1489.2 2702.68 1489.2L2686 1551 L-100 1551 Z"></animate>
  <animateTransform attributeName="transform" type="translate" dur="0.7042253521126761s" begin="-0.6161971830985916s" repeatCount="indefinite" values="0;10;0" calcMode="spline" keySplines="0.3 0 0.7 1;0.3 0 0.7 1"></animateTransform>
</path></g>
</svg>