<?xml version="1.0" encoding="utf-8"?>
<svg xmlns="http://www.w3.org/2000/svg" xmlns:xlink="http://www.w3.org/1999/xlink" style="margin: auto; background: rgb(241, 242, 243); display: block; z-index: 1; position: relative; shape-rendering: auto;" width="2586" height="953" preserveAspectRatio="xMidYMid" viewBox="0 0 2586 953">
<g transform="translate(1293,476.5) scale(1,1) translate(-1293,-476.5)"><path d="M-100 673.87C-45.1 671.64 -46.17 697.19 3.19 697.19S58.74 694.45 106.37 694.45S161.56 679.93 209.56 679.93S264.54 680.8 312.74 680.8S365.41 702.65 415.93 702.65S470.04 692.11 519.11 692.11S574.47 690.62 622.3 690.62S675.36 670.26 725.48 670.26S778.88 671.93 828.67 671.93S882.13 667 931.85 667S985.33 661.61 1035.04 661.61S1091.3 678.79 1138.22 678.79S1192.28 696.99 1241.41 696.99S1296.2 668.09 1344.59 668.09S1400.13 699.19 1447.78 699.19S1501.51 680.52 1550.96 680.52S1603.58 697.88 1654.15 697.88S1705.97 669.87 1757.33 669.87S1811.02 701.27 1860.52 701.27S1912.99 696.97 1963.7 696.97S2019.94 660.96 2066.89 660.96S2121.43 678.81 2170.07 678.81S2222.55 703.76 2273.26 703.76S2325.47 664.15 2376.44 664.15S2431.07 697.51 2479.63 697.51S2532.65 703.8 2582.81 703.8S2636.07 700.02 2686 700.02S2740.53 690.21 2789.19 690.21L2686 953 L-100 953 Z" fill="#07a5c4" stroke-width="0">
  <animate attributeName="d" dur="550s" repeatCount="indefinite" values="M-100 673.87C-45.1 671.64 -46.17 697.19 3.19 697.19S58.74 694.45 106.37 694.45S161.56 679.93 209.56 679.93S264.54 680.8 312.74 680.8S365.41 702.65 415.93 702.65S470.04 692.11 519.11 692.11S574.47 690.62 622.3 690.62S675.36 670.26 725.48 670.26S778.88 671.93 828.67 671.93S882.13 667 931.85 667S985.33 661.61 1035.04 661.61S1091.3 678.79 1138.22 678.79S1192.28 696.99 1241.41 696.99S1296.2 668.09 1344.59 668.09S1400.13 699.19 1447.78 699.19S1501.51 680.52 1550.96 680.52S1603.58 697.88 1654.15 697.88S1705.97 669.87 1757.33 669.87S1811.02 701.27 1860.52 701.27S1912.99 696.97 1963.7 696.97S2019.94 660.96 2066.89 660.96S2121.43 678.81 2170.07 678.81S2222.55 703.76 2273.26 703.76S2325.47 664.15 2376.44 664.15S2431.07 697.51 2479.63 697.51S2532.65 703.8 2582.81 703.8S2636.07 700.02 2686 700.02S2740.53 690.21 2789.19 690.21L2686 953 L-100 953 Z;M-100 696.11C-48.03 699.6 -47.27 670.51 3.19 670.51S58.35 685 106.37 685S159.97 665.34 209.56 665.34S261.28 678.62 312.74 678.62S368.32 665.28 415.93 665.28S468.28 665.26 519.11 665.26S572.84 679.47 622.3 679.47S675.15 664.34 725.48 664.34S779.12 658.62 828.67 658.62S882.53 700.98 931.85 700.98S984.12 694.07 1035.04 694.07S1090.66 668.48 1138.22 668.48S1190.69 659.56 1241.41 659.56S1296.3 684.6 1344.59 684.6S1397.27 703.45 1447.78 703.45S1499.96 670.93 1550.96 670.93S1605.26 672.2 1654.15 672.2S1707.44 671.77 1757.33 671.77S1811.28 672.23 1860.52 672.23S1916.42 672.39 1963.7 672.39S2016.59 691.22 2066.89 691.22S2121.21 701.91 2170.07 701.91S2223.44 672.39 2273.26 672.39S2325.06 658.11 2376.44 658.11S2430.12 660.39 2479.63 660.39S2531.62 684.3 2582.81 684.3S2637.4 687.33 2686 687.33S2739.22 678.04 2789.19 678.04L2686 953 L-100 953 Z;M-100 673.87C-45.1 671.64 -46.17 697.19 3.19 697.19S58.74 694.45 106.37 694.45S161.56 679.93 209.56 679.93S264.54 680.8 312.74 680.8S365.41 702.65 415.93 702.65S470.04 692.11 519.11 692.11S574.47 690.62 622.3 690.62S675.36 670.26 725.48 670.26S778.88 671.93 828.67 671.93S882.13 667 931.85 667S985.33 661.61 1035.04 661.61S1091.3 678.79 1138.22 678.79S1192.28 696.99 1241.41 696.99S1296.2 668.09 1344.59 668.09S1400.13 699.19 1447.78 699.19S1501.51 680.52 1550.96 680.52S1603.58 697.88 1654.15 697.88S1705.97 669.87 1757.33 669.87S1811.02 701.27 1860.52 701.27S1912.99 696.97 1963.7 696.97S2019.94 660.96 2066.89 660.96S2121.43 678.81 2170.07 678.81S2222.55 703.76 2273.26 703.76S2325.47 664.15 2376.44 664.15S2431.07 697.51 2479.63 697.51S2532.65 703.8 2582.81 703.8S2636.07 700.02 2686 700.02S2740.53 690.21 2789.19 690.21L2686 953 L-100 953 Z"></animate>
  <animateTransform attributeName="transform" type="translate" dur="550s" begin="0s" repeatCount="indefinite" values="0;10;0" calcMode="spline" keySplines="0.3 0 0.7 1;0.3 0 0.7 1"></animateTransform>
</path><path d="M-100 687.16C-44.7 691.36 -43.8 719.75 5.68 719.75S59.22 706.8 111.35 706.8S166.48 717.73 217.03 717.73S272.77 723 322.7 723S376.08 706.84 428.38 706.84S482.3 706.76 534.06 706.76S589.52 715.14 639.73 715.14S696.79 686.48 745.41 686.48S802.06 721.44 851.08 721.44S904.71 721.22 956.76 721.22S1013.63 704.75 1062.43 704.75S1119.73 711.91 1168.11 711.91S1220.96 702.64 1273.79 702.64S1329.03 688.13 1379.46 688.13S1433.54 704.88 1485.14 704.88S1542.58 703.51 1590.81 703.51S1645.25 710.09 1696.49 710.09S1749.42 714.69 1802.17 714.69S1857.08 699.97 1907.84 699.97S1960.81 716.49 2013.52 716.49S2067.18 689.26 2119.19 689.26S2173.57 705.86 2224.87 705.86S2277.85 694.67 2330.54 694.67S2387.01 684.41 2436.22 684.41S2490.34 695.51 2541.9 695.51S2597.41 703.91 2647.57 703.91S2702.02 691.11 2753.25 691.11L2686 953 L-100 953 Z" fill="#009ec1" stroke-width="0">
  <animate attributeName="d" dur="500s" repeatCount="indefinite" values="M-100 687.16C-44.7 691.36 -43.8 719.75 5.68 719.75S59.22 706.8 111.35 706.8S166.48 717.73 217.03 717.73S272.77 723 322.7 723S376.08 706.84 428.38 706.84S482.3 706.76 534.06 706.76S589.52 715.14 639.73 715.14S696.79 686.48 745.41 686.48S802.06 721.44 851.08 721.44S904.71 721.22 956.76 721.22S1013.63 704.75 1062.43 704.75S1119.73 711.91 1168.11 711.91S1220.96 702.64 1273.79 702.64S1329.03 688.13 1379.46 688.13S1433.54 704.88 1485.14 704.88S1542.58 703.51 1590.81 703.51S1645.25 710.09 1696.49 710.09S1749.42 714.69 1802.17 714.69S1857.08 699.97 1907.84 699.97S1960.81 716.49 2013.52 716.49S2067.18 689.26 2119.19 689.26S2173.57 705.86 2224.87 705.86S2277.85 694.67 2330.54 694.67S2387.01 684.41 2436.22 684.41S2490.34 695.51 2541.9 695.51S2597.41 703.91 2647.57 703.91S2702.02 691.11 2753.25 691.11L2686 953 L-100 953 Z;M-100 716.03C-45.72 704.64 -46.78 698.22 5.68 698.22S58.68 712.47 111.35 712.47S164.95 725.38 217.03 725.38S273.8 704.72 322.7 704.72S380.18 699.57 428.38 699.57S484 687.22 534.06 687.22S586.9 701.99 639.73 701.99S695.39 724.17 745.41 724.17S799.91 726.66 851.08 726.66S905.71 682.72 956.76 682.72S1012.53 699.74 1062.43 699.74S1119.86 715.5 1168.11 715.5S1221.24 719.74 1273.79 719.74S1328.55 705.89 1379.46 705.89S1435.25 720.79 1485.14 720.79S1539.65 709.84 1590.81 709.84S1646.86 705.65 1696.49 705.65S1749.41 699.62 1802.17 699.62S1859.15 722.35 1907.84 722.35S1963.43 681.44 2013.52 681.44S2068.6 697.43 2119.19 697.43S2173.12 708.99 2224.87 708.99S2279.35 689.9 2330.54 689.9S2387.43 714.21 2436.22 714.21S2492.26 700.72 2541.9 700.72S2598.51 718.7 2647.57 718.7S2702.63 697.86 2753.25 697.86L2686 953 L-100 953 Z;M-100 687.16C-44.7 691.36 -43.8 719.75 5.68 719.75S59.22 706.8 111.35 706.8S166.48 717.73 217.03 717.73S272.77 723 322.7 723S376.08 706.84 428.38 706.84S482.3 706.76 534.06 706.76S589.52 715.14 639.73 715.14S696.79 686.48 745.41 686.48S802.06 721.44 851.08 721.44S904.71 721.22 956.76 721.22S1013.63 704.75 1062.43 704.75S1119.73 711.91 1168.11 711.91S1220.96 702.64 1273.79 702.64S1329.03 688.13 1379.46 688.13S1433.54 704.88 1485.14 704.88S1542.58 703.51 1590.81 703.51S1645.25 710.09 1696.49 710.09S1749.42 714.69 1802.17 714.69S1857.08 699.97 1907.84 699.97S1960.81 716.49 2013.52 716.49S2067.18 689.26 2119.19 689.26S2173.57 705.86 2224.87 705.86S2277.85 694.67 2330.54 694.67S2387.01 684.41 2436.22 684.41S2490.34 695.51 2541.9 695.51S2597.41 703.91 2647.57 703.91S2702.02 691.11 2753.25 691.11L2686 953 L-100 953 Z"></animate>
  <animateTransform attributeName="transform" type="translate" dur="500s" begin="-45.45454545454545s" repeatCount="indefinite" values="0;10;0" calcMode="spline" keySplines="0.3 0 0.7 1;0.3 0 0.7 1"></animateTransform>
</path><path d="M-100 717.92C-44.04 724.78 -44.35 714.99 8.29 714.99S66.41 735.72 116.58 735.72S172.97 750.51 224.87 750.51S282.73 707.63 333.16 707.63S390.41 719.2 441.45 719.2S496.27 742.5 549.74 742.5S607.68 728.61 658.03 728.61S714.6 714.37 766.32 714.37S823.12 731.59 874.61 731.59S931.67 730.96 982.9 730.96S1038.22 746.73 1091.19 746.73S1146.91 756.57 1199.48 756.57S1254.61 757.29 1307.77 757.29S1366.33 717.57 1416.06 717.57S1474.42 737.92 1524.35 737.92S1580.18 725.32 1632.64 725.32S1688.81 733.74 1740.93 733.74S1798.04 708.68 1849.22 708.68S1907.49 743.35 1957.51 743.35S2012.42 731.46 2065.8 731.46S2122.76 749.54 2174.08 749.54S2231.23 749.77 2282.37 749.77S2337.53 756.34 2390.66 756.34S2447.22 720.39 2498.95 720.39S2555.97 717.85 2607.24 717.85S2662.75 738.43 2715.53 738.43L2686 953 L-100 953 Z" fill="#0096bd" stroke-width="0">
  <animate attributeName="d" dur="450s" repeatCount="indefinite" values="M-100 717.92C-44.04 724.78 -44.35 714.99 8.29 714.99S66.41 735.72 116.58 735.72S172.97 750.51 224.87 750.51S282.73 707.63 333.16 707.63S390.41 719.2 441.45 719.2S496.27 742.5 549.74 742.5S607.68 728.61 658.03 728.61S714.6 714.37 766.32 714.37S823.12 731.59 874.61 731.59S931.67 730.96 982.9 730.96S1038.22 746.73 1091.19 746.73S1146.91 756.57 1199.48 756.57S1254.61 757.29 1307.77 757.29S1366.33 717.57 1416.06 717.57S1474.42 737.92 1524.35 737.92S1580.18 725.32 1632.64 725.32S1688.81 733.74 1740.93 733.74S1798.04 708.68 1849.22 708.68S1907.49 743.35 1957.51 743.35S2012.42 731.46 2065.8 731.46S2122.76 749.54 2174.08 749.54S2231.23 749.77 2282.37 749.77S2337.53 756.34 2390.66 756.34S2447.22 720.39 2498.95 720.39S2555.97 717.85 2607.24 717.85S2662.75 738.43 2715.53 738.43L2686 953 L-100 953 Z;M-100 736.27C-43.26 740.3 -43.65 747.18 8.29 747.18S63.97 742.54 116.58 742.54S171.35 717.14 224.87 717.14S280.12 722.88 333.16 722.88S391.64 756.45 441.45 756.45S496.01 744.44 549.74 744.44S606.95 725.17 658.03 725.17S716.11 742.88 766.32 742.88S820.97 757.68 874.61 757.68S930.2 729.73 982.9 729.73S1039.88 716.97 1091.19 716.97S1150 753.04 1199.48 753.04S1255.93 710.64 1307.77 710.64S1364.42 732.86 1416.06 732.86S1472.3 712.64 1524.35 712.64S1579.99 712.46 1632.64 712.46S1687.58 755.01 1740.93 755.01S1797.42 721.74 1849.22 721.74S1907.95 715.24 1957.51 715.24S2016.13 709.11 2065.8 709.11S2121.68 719.88 2174.08 719.88S2231.94 712.83 2282.37 712.83S2337.87 722.34 2390.66 722.34S2444.88 750.83 2498.95 750.83S2555.73 751.91 2607.24 751.91S2666.03 726.57 2715.53 726.57L2686 953 L-100 953 Z;M-100 717.92C-44.04 724.78 -44.35 714.99 8.29 714.99S66.41 735.72 116.58 735.72S172.97 750.51 224.87 750.51S282.73 707.63 333.16 707.63S390.41 719.2 441.45 719.2S496.27 742.5 549.74 742.5S607.68 728.61 658.03 728.61S714.6 714.37 766.32 714.37S823.12 731.59 874.61 731.59S931.67 730.96 982.9 730.96S1038.22 746.73 1091.19 746.73S1146.91 756.57 1199.48 756.57S1254.61 757.29 1307.77 757.29S1366.33 717.57 1416.06 717.57S1474.42 737.92 1524.35 737.92S1580.18 725.32 1632.64 725.32S1688.81 733.74 1740.93 733.74S1798.04 708.68 1849.22 708.68S1907.49 743.35 1957.51 743.35S2012.42 731.46 2065.8 731.46S2122.76 749.54 2174.08 749.54S2231.23 749.77 2282.37 749.77S2337.53 756.34 2390.66 756.34S2447.22 720.39 2498.95 720.39S2555.97 717.85 2607.24 717.85S2662.75 738.43 2715.53 738.43L2686 953 L-100 953 Z"></animate>
  <animateTransform attributeName="transform" type="translate" dur="450s" begin="-81.81818181818181s" repeatCount="indefinite" values="0;10;0" calcMode="spline" keySplines="0.3 0 0.7 1;0.3 0 0.7 1"></animateTransform>
</path><path d="M-100 740.75C-42.31 749.46 -40.8 749.75 11.04 749.75S68.05 729.34 122.07 729.34S180.37 783.5 233.11 783.5S292.48 759.28 344.14 759.28S400.19 731.83 455.18 731.83S513.11 727.04 566.22 727.04S623.91 758.64 677.25 758.64S737.19 741.63 788.29 741.63S845.46 728.87 899.33 728.87S958.21 766.88 1010.36 766.88S1066.78 759.45 1121.4 759.45S1177.86 741.14 1232.43 741.14S1288.35 769.43 1343.47 769.43S1400.63 760.44 1454.51 760.44S1513.11 740.47 1565.54 740.47S1624.69 748.2 1676.58 748.2S1735.48 767.48 1787.62 767.48S1845.86 741.36 1898.65 741.36S1956.46 775.23 2009.69 775.23S2068.75 724.1 2120.72 724.1S2176.84 785.25 2231.76 785.25S2289.21 757.83 2342.8 757.83S2399.06 777.1 2453.83 777.1S2513.88 762.41 2564.87 762.41S2624.16 757.34 2675.91 757.34S2733.21 746.52 2786.94 746.52L2686 953 L-100 953 Z" fill="#008fba" stroke-width="0">
  <animate attributeName="d" dur="400s" repeatCount="indefinite" values="M-100 740.75C-42.31 749.46 -40.8 749.75 11.04 749.75S68.05 729.34 122.07 729.34S180.37 783.5 233.11 783.5S292.48 759.28 344.14 759.28S400.19 731.83 455.18 731.83S513.11 727.04 566.22 727.04S623.91 758.64 677.25 758.64S737.19 741.63 788.29 741.63S845.46 728.87 899.33 728.87S958.21 766.88 1010.36 766.88S1066.78 759.45 1121.4 759.45S1177.86 741.14 1232.43 741.14S1288.35 769.43 1343.47 769.43S1400.63 760.44 1454.51 760.44S1513.11 740.47 1565.54 740.47S1624.69 748.2 1676.58 748.2S1735.48 767.48 1787.62 767.48S1845.86 741.36 1898.65 741.36S1956.46 775.23 2009.69 775.23S2068.75 724.1 2120.72 724.1S2176.84 785.25 2231.76 785.25S2289.21 757.83 2342.8 757.83S2399.06 777.1 2453.83 777.1S2513.88 762.41 2564.87 762.41S2624.16 757.34 2675.91 757.34S2733.21 746.52 2786.94 746.52L2686 953 L-100 953 Z;M-100 768.81C-41.68 758.51 -40.1 783.59 11.04 783.59S68.76 761.63 122.07 761.63S178.32 755.12 233.11 755.12S290.41 739.55 344.14 739.55S402.73 749.8 455.18 749.8S512.87 755.54 566.22 755.54S625.19 750.82 677.25 750.82S737.01 750.85 788.29 750.85S844.95 758.63 899.33 758.63S955.63 723.33 1010.36 723.33S1068.82 777.36 1121.4 777.36S1177.91 764.2 1232.43 764.2S1288.48 767.04 1343.47 767.04S1399.03 746.97 1454.51 746.97S1511.36 780.76 1565.54 780.76S1621.46 750.97 1676.58 750.97S1735.51 742.54 1787.62 742.54S1845.46 759.28 1898.65 759.28S1956.21 755.4 2009.69 755.4S2068.21 729.18 2120.72 729.18S2180.7 772.12 2231.76 772.12S2288.18 742.86 2342.8 742.86S2399.76 759.6 2453.83 759.6S2513.21 732.4 2564.87 732.4S2623.65 756.57 2675.91 756.57S2733.74 744.5 2786.94 744.5L2686 953 L-100 953 Z;M-100 740.75C-42.31 749.46 -40.8 749.75 11.04 749.75S68.05 729.34 122.07 729.34S180.37 783.5 233.11 783.5S292.48 759.28 344.14 759.28S400.19 731.83 455.18 731.83S513.11 727.04 566.22 727.04S623.91 758.64 677.25 758.64S737.19 741.63 788.29 741.63S845.46 728.87 899.33 728.87S958.21 766.88 1010.36 766.88S1066.78 759.45 1121.4 759.45S1177.86 741.14 1232.43 741.14S1288.35 769.43 1343.47 769.43S1400.63 760.44 1454.51 760.44S1513.11 740.47 1565.54 740.47S1624.69 748.2 1676.58 748.2S1735.48 767.48 1787.62 767.48S1845.86 741.36 1898.65 741.36S1956.46 775.23 2009.69 775.23S2068.75 724.1 2120.72 724.1S2176.84 785.25 2231.76 785.25S2289.21 757.83 2342.8 757.83S2399.06 777.1 2453.83 777.1S2513.88 762.41 2564.87 762.41S2624.16 757.34 2675.91 757.34S2733.21 746.52 2786.94 746.52L2686 953 L-100 953 Z"></animate>
  <animateTransform attributeName="transform" type="translate" dur="400s" begin="-109.0909090909091s" repeatCount="indefinite" values="0;10;0" calcMode="spline" keySplines="0.3 0 0.7 1;0.3 0 0.7 1"></animateTransform>
</path><path d="M-100 759.85C-42.49 773.96 -39.97 766.64 13.93 766.64S73.66 766.53 127.85 766.53S185.59 796.69 241.78 796.69S302.09 780.59 355.7 780.59S413.35 785.93 469.63 785.93S530.37 785.36 583.55 785.36S642.72 798.14 697.48 798.14S756.55 744.44 811.41 744.44S868.83 809.88 925.33 809.88S984.26 780.46 1039.26 780.46S1099.13 774.84 1153.18 774.84S1213.53 779.8 1267.11 779.8S1324.48 800.85 1381.03 800.85S1439.43 749.38 1494.96 749.38S1553.66 776.69 1608.88 776.69S1667.89 744.46 1722.81 744.46S1781.72 799.22 1836.74 799.22S1897.96 772.3 1950.66 772.3S2009.44 799.14 2064.59 799.14S2125 780.88 2178.51 780.88S2239.4 746.95 2292.44 746.95S2351.69 750.8 2406.36 750.8S2465.13 794.39 2520.29 794.39S2577.87 785.87 2634.22 785.87S2694.36 770.42 2748.14 770.42L2686 953 L-100 953 Z" fill="#0087b6" stroke-width="0">
  <animate attributeName="d" dur="350s" repeatCount="indefinite" values="M-100 759.85C-42.49 773.96 -39.97 766.64 13.93 766.64S73.66 766.53 127.85 766.53S185.59 796.69 241.78 796.69S302.09 780.59 355.7 780.59S413.35 785.93 469.63 785.93S530.37 785.36 583.55 785.36S642.72 798.14 697.48 798.14S756.55 744.44 811.41 744.44S868.83 809.88 925.33 809.88S984.26 780.46 1039.26 780.46S1099.13 774.84 1153.18 774.84S1213.53 779.8 1267.11 779.8S1324.48 800.85 1381.03 800.85S1439.43 749.38 1494.96 749.38S1553.66 776.69 1608.88 776.69S1667.89 744.46 1722.81 744.46S1781.72 799.22 1836.74 799.22S1897.96 772.3 1950.66 772.3S2009.44 799.14 2064.59 799.14S2125 780.88 2178.51 780.88S2239.4 746.95 2292.44 746.95S2351.69 750.8 2406.36 750.8S2465.13 794.39 2520.29 794.39S2577.87 785.87 2634.22 785.87S2694.36 770.42 2748.14 770.42L2686 953 L-100 953 Z;M-100 805.03C-42.66 798.86 -42.48 788.59 13.93 788.59S72.67 779.53 127.85 779.53S188.12 774.84 241.78 774.84S301.63 745.42 355.7 745.42S415.48 788.54 469.63 788.54S529.37 785.39 583.55 785.39S641.45 799.09 697.48 799.09S756.09 770.38 811.41 770.38S868.63 775.1 925.33 775.1S984.68 762.24 1039.26 762.24S1099.62 804.51 1153.18 804.51S1211.63 775.34 1267.11 775.34S1328.67 776.32 1381.03 776.32S1438.69 767.19 1494.96 767.19S1555.47 808.3 1608.88 808.3S1668.6 759.92 1722.81 759.92S1782.46 792.06 1836.74 792.06S1897.71 766.79 1950.66 766.79S2008 767.1 2064.59 767.1S2124.67 777.94 2178.51 777.94S2238.42 779.29 2292.44 779.29S2349.41 783.2 2406.36 783.2S2467.41 807.29 2520.29 807.29S2580.38 782.23 2634.22 782.23S2695.41 786.54 2748.14 786.54L2686 953 L-100 953 Z;M-100 759.85C-42.49 773.96 -39.97 766.64 13.93 766.64S73.66 766.53 127.85 766.53S185.59 796.69 241.78 796.69S302.09 780.59 355.7 780.59S413.35 785.93 469.63 785.93S530.37 785.36 583.55 785.36S642.72 798.14 697.48 798.14S756.55 744.44 811.41 744.44S868.83 809.88 925.33 809.88S984.26 780.46 1039.26 780.46S1099.13 774.84 1153.18 774.84S1213.53 779.8 1267.11 779.8S1324.48 800.85 1381.03 800.85S1439.43 749.38 1494.96 749.38S1553.66 776.69 1608.88 776.69S1667.89 744.46 1722.81 744.46S1781.72 799.22 1836.74 799.22S1897.96 772.3 1950.66 772.3S2009.44 799.14 2064.59 799.14S2125 780.88 2178.51 780.88S2239.4 746.95 2292.44 746.95S2351.69 750.8 2406.36 750.8S2465.13 794.39 2520.29 794.39S2577.87 785.87 2634.22 785.87S2694.36 770.42 2748.14 770.42L2686 953 L-100 953 Z"></animate>
  <animateTransform attributeName="transform" type="translate" dur="350s" begin="-127.27272727272727s" repeatCount="indefinite" values="0;10;0" calcMode="spline" keySplines="0.3 0 0.7 1;0.3 0 0.7 1"></animateTransform>
</path><path d="M-100 777.12C-41.46 770.84 -38.1 819.64 16.97 819.64S78.48 830.11 133.94 830.11S195.91 825.78 250.91 825.78S313.9 779.35 367.88 779.35S429.57 767.51 484.85 767.51S546.62 799.22 601.82 799.22S660.38 811.27 718.79 811.27S779.22 826.99 835.76 826.99S895 798.88 952.73 798.88S1012.96 802.29 1069.69 802.29S1128.99 815.19 1186.66 815.19S1248.48 790.55 1303.63 790.55S1364.25 801.06 1420.6 801.06S1479.88 825.8 1537.57 825.8S1599.61 805 1654.54 805S1716.54 780.55 1771.51 780.55S1831.12 809.58 1888.48 809.58S1951.01 795.46 2005.45 795.46S2067.83 799.21 2122.42 799.21S2183.69 812.33 2239.39 812.33S2302.49 825.01 2356.36 825.01S2415.92 787.26 2473.33 787.26S2535.58 797.16 2590.3 797.16S2651.78 802.65 2707.27 802.65L2686 953 L-100 953 Z" fill="#0080b2" stroke-width="0">
  <animate attributeName="d" dur="300s" repeatCount="indefinite" values="M-100 777.12C-41.46 770.84 -38.1 819.64 16.97 819.64S78.48 830.11 133.94 830.11S195.91 825.78 250.91 825.78S313.9 779.35 367.88 779.35S429.57 767.51 484.85 767.51S546.62 799.22 601.82 799.22S660.38 811.27 718.79 811.27S779.22 826.99 835.76 826.99S895 798.88 952.73 798.88S1012.96 802.29 1069.69 802.29S1128.99 815.19 1186.66 815.19S1248.48 790.55 1303.63 790.55S1364.25 801.06 1420.6 801.06S1479.88 825.8 1537.57 825.8S1599.61 805 1654.54 805S1716.54 780.55 1771.51 780.55S1831.12 809.58 1888.48 809.58S1951.01 795.46 2005.45 795.46S2067.83 799.21 2122.42 799.21S2183.69 812.33 2239.39 812.33S2302.49 825.01 2356.36 825.01S2415.92 787.26 2473.33 787.26S2535.58 797.16 2590.3 797.16S2651.78 802.65 2707.27 802.65L2686 953 L-100 953 Z;M-100 832.76C-38.21 800.11 -38.76 836.07 16.97 836.07S77.68 809.23 133.94 809.23S196.95 818.87 250.91 818.87S312.97 786.19 367.88 786.19S430.95 819.07 484.85 819.07S544.93 786.03 601.82 786.03S663.27 803.92 718.79 803.92S777.95 805.06 835.76 805.06S896.25 809.14 952.73 809.14S1014.24 790.13 1069.69 790.13S1132.39 793.86 1186.66 793.86S1246.82 767.16 1303.63 767.16S1363.64 824.65 1420.6 824.65S1481.45 806.31 1537.57 806.31S1599.34 792.65 1654.54 792.65S1713.59 782.86 1771.51 782.86S1830.76 817.93 1888.48 817.93S1951.29 770.17 2005.45 770.17S2064.72 791.05 2122.42 791.05S2185.23 818.97 2239.39 818.97S2299.26 801.54 2356.36 801.54S2417.83 799.54 2473.33 799.54S2535 779.8 2590.3 779.8S2651.15 798.65 2707.27 798.65L2686 953 L-100 953 Z;M-100 777.12C-41.46 770.84 -38.1 819.64 16.97 819.64S78.48 830.11 133.94 830.11S195.91 825.78 250.91 825.78S313.9 779.35 367.88 779.35S429.57 767.51 484.85 767.51S546.62 799.22 601.82 799.22S660.38 811.27 718.79 811.27S779.22 826.99 835.76 826.99S895 798.88 952.73 798.88S1012.96 802.29 1069.69 802.29S1128.99 815.19 1186.66 815.19S1248.48 790.55 1303.63 790.55S1364.25 801.06 1420.6 801.06S1479.88 825.8 1537.57 825.8S1599.61 805 1654.54 805S1716.54 780.55 1771.51 780.55S1831.12 809.58 1888.48 809.58S1951.01 795.46 2005.45 795.46S2067.83 799.21 2122.42 799.21S2183.69 812.33 2239.39 812.33S2302.49 825.01 2356.36 825.01S2415.92 787.26 2473.33 787.26S2535.58 797.16 2590.3 797.16S2651.78 802.65 2707.27 802.65L2686 953 L-100 953 Z"></animate>
  <animateTransform attributeName="transform" type="translate" dur="300s" begin="-136.36363636363637s" repeatCount="indefinite" values="0;10;0" calcMode="spline" keySplines="0.3 0 0.7 1;0.3 0 0.7 1"></animateTransform>
</path><path d="M-100 824.97C-36.27 798.7 -39.51 842.46 20.18 842.46S84.12 849.38 140.36 849.38S203.57 822.48 260.54 822.48S322.5 816.98 380.72 816.98S443.12 845.79 500.9 845.79S565.11 829.57 621.08 829.57S683.38 842.46 741.26 842.46S806.03 801.94 861.44 801.94S924.71 799.74 981.62 799.74S1041.91 790.4 1101.8 790.4S1163.23 840.42 1221.98 840.42S1282.4 807.74 1342.16 807.74S1402.93 835.81 1462.35 835.81S1523.61 788.54 1582.53 788.54S1643.81 827.99 1702.71 827.99S1765.21 832.94 1822.89 832.94S1886.55 827.84 1943.07 827.84S2003.84 822.48 2063.25 822.48S2127.44 852.54 2183.43 852.54S2247.32 827.96 2303.61 827.96S2366.7 824.32 2423.79 824.32S2488.03 831.5 2543.97 831.5S2605.2 836.75 2664.15 836.75S2725.66 796.74 2784.33 796.74L2686 953 L-100 953 Z" fill="#0079ad" stroke-width="0">
  <animate attributeName="d" dur="250s" repeatCount="indefinite" values="M-100 824.97C-36.27 798.7 -39.51 842.46 20.18 842.46S84.12 849.38 140.36 849.38S203.57 822.48 260.54 822.48S322.5 816.98 380.72 816.98S443.12 845.79 500.9 845.79S565.11 829.57 621.08 829.57S683.38 842.46 741.26 842.46S806.03 801.94 861.44 801.94S924.71 799.74 981.62 799.74S1041.91 790.4 1101.8 790.4S1163.23 840.42 1221.98 840.42S1282.4 807.74 1342.16 807.74S1402.93 835.81 1462.35 835.81S1523.61 788.54 1582.53 788.54S1643.81 827.99 1702.71 827.99S1765.21 832.94 1822.89 832.94S1886.55 827.84 1943.07 827.84S2003.84 822.48 2063.25 822.48S2127.44 852.54 2183.43 852.54S2247.32 827.96 2303.61 827.96S2366.7 824.32 2423.79 824.32S2488.03 831.5 2543.97 831.5S2605.2 836.75 2664.15 836.75S2725.66 796.74 2784.33 796.74L2686 953 L-100 953 Z;M-100 789.79C-37.91 793.67 -37.85 863.79 20.18 863.79S83.06 858.69 140.36 858.69S203.04 823.34 260.54 823.34S325 807.89 380.72 807.89S442.3 824.29 500.9 824.29S562.95 796.62 621.08 796.62S681.36 826.11 741.26 826.11S803.57 826.02 861.44 826.02S925.71 793.04 981.62 793.04S1044.88 792.53 1101.8 792.53S1162.75 843.08 1221.98 843.08S1285.41 818.37 1342.16 818.37S1406.82 829.21 1462.35 829.21S1525.01 825.51 1582.53 825.51S1644.68 829.93 1702.71 829.93S1766.89 787.72 1822.89 787.72S1883.46 857.08 1943.07 857.08S2003.52 804.97 2063.25 804.97S2124.44 832.51 2183.43 832.51S2245.31 865.78 2303.61 865.78S2366.45 832.69 2423.79 832.69S2488.41 822.52 2543.97 822.52S2605.99 808.44 2664.15 808.44S2725.5 827.95 2784.33 827.95L2686 953 L-100 953 Z;M-100 824.97C-36.27 798.7 -39.51 842.46 20.18 842.46S84.12 849.38 140.36 849.38S203.57 822.48 260.54 822.48S322.5 816.98 380.72 816.98S443.12 845.79 500.9 845.79S565.11 829.57 621.08 829.57S683.38 842.46 741.26 842.46S806.03 801.94 861.44 801.94S924.71 799.74 981.62 799.74S1041.91 790.4 1101.8 790.4S1163.23 840.42 1221.98 840.42S1282.4 807.74 1342.16 807.74S1402.93 835.81 1462.35 835.81S1523.61 788.54 1582.53 788.54S1643.81 827.99 1702.71 827.99S1765.21 832.94 1822.89 832.94S1886.55 827.84 1943.07 827.84S2003.84 822.48 2063.25 822.48S2127.44 852.54 2183.43 852.54S2247.32 827.96 2303.61 827.96S2366.7 824.32 2423.79 824.32S2488.03 831.5 2543.97 831.5S2605.2 836.75 2664.15 836.75S2725.66 796.74 2784.33 796.74L2686 953 L-100 953 Z"></animate>
  <animateTransform attributeName="transform" type="translate" dur="250s" begin="-136.36363636363637s" repeatCount="indefinite" values="0;10;0" calcMode="spline" keySplines="0.3 0 0.7 1;0.3 0 0.7 1"></animateTransform>
</path><path d="M-100 824.35C-36.88 830.22 -36.37 890.38 23.57 890.38S86.37 815.93 147.15 815.93S211.05 848.77 270.72 848.77S336.51 868.91 394.29 868.91S458.35 860.58 517.86 860.58S581.37 846.47 641.44 846.47S705.7 887.99 765.01 887.99S828.84 828.51 888.58 828.51S952.85 856.6 1012.15 856.6S1074.83 882.32 1135.73 882.32S1199.36 849.52 1259.3 849.52S1322.85 818.77 1382.87 818.77S1444.99 875.28 1506.44 875.28S1571.34 831.96 1630.02 831.96S1693.88 878.16 1753.59 878.16S1816.21 847.77 1877.16 847.77S1941.13 844.63 2000.73 844.63S2065.28 839.29 2124.31 839.29S2187.64 850.42 2247.88 850.42S2310.05 819.17 2371.45 819.17S2437.46 877.12 2495.02 877.12S2559.02 879.99 2618.6 879.99S2684.71 830.71 2742.17 830.71L2686 953 L-100 953 Z" fill="#0071a9" stroke-width="0">
  <animate attributeName="d" dur="200s" repeatCount="indefinite" values="M-100 824.35C-36.88 830.22 -36.37 890.38 23.57 890.38S86.37 815.93 147.15 815.93S211.05 848.77 270.72 848.77S336.51 868.91 394.29 868.91S458.35 860.58 517.86 860.58S581.37 846.47 641.44 846.47S705.7 887.99 765.01 887.99S828.84 828.51 888.58 828.51S952.85 856.6 1012.15 856.6S1074.83 882.32 1135.73 882.32S1199.36 849.52 1259.3 849.52S1322.85 818.77 1382.87 818.77S1444.99 875.28 1506.44 875.28S1571.34 831.96 1630.02 831.96S1693.88 878.16 1753.59 878.16S1816.21 847.77 1877.16 847.77S1941.13 844.63 2000.73 844.63S2065.28 839.29 2124.31 839.29S2187.64 850.42 2247.88 850.42S2310.05 819.17 2371.45 819.17S2437.46 877.12 2495.02 877.12S2559.02 879.99 2618.6 879.99S2684.71 830.71 2742.17 830.71L2686 953 L-100 953 Z;M-100 835.44C-34.78 815.37 -36.36 853.37 23.57 853.37S89.03 857.46 147.15 857.46S208.97 850.55 270.72 850.55S336.4 858.66 394.29 858.66S456.41 869.67 517.86 869.67S583.03 833.14 641.44 833.14S703.68 893.68 765.01 893.68S829.44 870.91 888.58 870.91S950.87 855.56 1012.15 855.56S1076.16 809.34 1135.73 809.34S1200.7 828.18 1259.3 828.18S1324.53 853.62 1382.87 853.62S1448.1 851.4 1506.44 851.4S1570.88 812.55 1630.02 812.55S1694.47 873.3 1753.59 873.3S1816.87 827.92 1877.16 827.92S1943.4 855.14 2000.73 855.14S2066.41 815.54 2124.31 815.54S2190.11 865.24 2247.88 865.24S2310.64 848.49 2371.45 848.49S2437.5 871.31 2495.02 871.31S2560.84 855.36 2618.6 855.36S2683.82 860.03 2742.17 860.03L2686 953 L-100 953 Z;M-100 824.35C-36.88 830.22 -36.37 890.38 23.57 890.38S86.37 815.93 147.15 815.93S211.05 848.77 270.72 848.77S336.51 868.91 394.29 868.91S458.35 860.58 517.86 860.58S581.37 846.47 641.44 846.47S705.7 887.99 765.01 887.99S828.84 828.51 888.58 828.51S952.85 856.6 1012.15 856.6S1074.83 882.32 1135.73 882.32S1199.36 849.52 1259.3 849.52S1322.85 818.77 1382.87 818.77S1444.99 875.28 1506.44 875.28S1571.34 831.96 1630.02 831.96S1693.88 878.16 1753.59 878.16S1816.21 847.77 1877.16 847.77S1941.13 844.63 2000.73 844.63S2065.28 839.29 2124.31 839.29S2187.64 850.42 2247.88 850.42S2310.05 819.17 2371.45 819.17S2437.46 877.12 2495.02 877.12S2559.02 879.99 2618.6 879.99S2684.71 830.71 2742.17 830.71L2686 953 L-100 953 Z"></animate>
  <animateTransform attributeName="transform" type="translate" dur="200s" begin="-127.27272727272727s" repeatCount="indefinite" values="0;10;0" calcMode="spline" keySplines="0.3 0 0.7 1;0.3 0 0.7 1"></animateTransform>
</path><path d="M-100 865.62C-34.63 857.33 -34.99 919.13 27.16 919.13S93.12 857.61 154.32 857.61S220.33 898.97 281.49 898.97S346.34 862.46 408.65 862.46S476.54 849.87 535.81 849.87S599.73 856.47 662.97 856.47S731.06 901.02 790.13 901.02S855.74 878.14 917.29 878.14S981.98 917.82 1044.46 917.82S1112.15 873.26 1171.62 873.26S1238.07 909.91 1298.78 909.91S1363.66 859.41 1425.94 859.41S1493.52 882.7 1553.1 882.7S1621.09 867.33 1680.27 867.33S1746.77 915.21 1807.43 915.21S1872.08 847.33 1934.59 847.33S2000.34 831.43 2061.75 831.43S2128.11 911.05 2188.91 911.05S2253.51 891.1 2316.07 891.1S2384.05 857.98 2443.24 857.98S2510.82 846.35 2570.4 846.35S2636.17 863.69 2697.56 863.69L2686 953 L-100 953 Z" fill="#006aa4" stroke-width="0">
  <animate attributeName="d" dur="150s" repeatCount="indefinite" values="M-100 865.62C-34.63 857.33 -34.99 919.13 27.16 919.13S93.12 857.61 154.32 857.61S220.33 898.97 281.49 898.97S346.34 862.46 408.65 862.46S476.54 849.87 535.81 849.87S599.73 856.47 662.97 856.47S731.06 901.02 790.13 901.02S855.74 878.14 917.29 878.14S981.98 917.82 1044.46 917.82S1112.15 873.26 1171.62 873.26S1238.07 909.91 1298.78 909.91S1363.66 859.41 1425.94 859.41S1493.52 882.7 1553.1 882.7S1621.09 867.33 1680.27 867.33S1746.77 915.21 1807.43 915.21S1872.08 847.33 1934.59 847.33S2000.34 831.43 2061.75 831.43S2128.11 911.05 2188.91 911.05S2253.51 891.1 2316.07 891.1S2384.05 857.98 2443.24 857.98S2510.82 846.35 2570.4 846.35S2636.17 863.69 2697.56 863.69L2686 953 L-100 953 Z;M-100 849.16C-32.44 868.24 -33.75 876.75 27.16 876.75S91.77 882.24 154.32 882.24S221.76 896.3 281.49 896.3S347.67 890.87 408.65 890.87S475.6 890.89 535.81 890.89S601.74 875.77 662.97 875.77S731.12 894.63 790.13 894.63S854.07 908.3 917.29 908.3S984.02 901.04 1044.46 901.04S1108.65 839.87 1171.62 839.87S1235.4 878.82 1298.78 878.82S1364.38 854.73 1425.94 854.73S1491.69 921.19 1553.1 921.19S1618.75 868.1 1680.27 868.1S1746.56 899.57 1807.43 899.57S1874.33 878.2 1934.59 878.2S2002.84 884.82 2061.75 884.82S2127.52 881.12 2188.91 881.12S2254.79 876.28 2316.07 876.28S2381.89 876.85 2443.24 876.85S2509.65 858.4 2570.4 858.4S2635.39 852.04 2697.56 852.04L2686 953 L-100 953 Z;M-100 865.62C-34.63 857.33 -34.99 919.13 27.16 919.13S93.12 857.61 154.32 857.61S220.33 898.97 281.49 898.97S346.34 862.46 408.65 862.46S476.54 849.87 535.81 849.87S599.73 856.47 662.97 856.47S731.06 901.02 790.13 901.02S855.74 878.14 917.29 878.14S981.98 917.82 1044.46 917.82S1112.15 873.26 1171.62 873.26S1238.07 909.91 1298.78 909.91S1363.66 859.41 1425.94 859.41S1493.52 882.7 1553.1 882.7S1621.09 867.33 1680.27 867.33S1746.77 915.21 1807.43 915.21S1872.08 847.33 1934.59 847.33S2000.34 831.43 2061.75 831.43S2128.11 911.05 2188.91 911.05S2253.51 891.1 2316.07 891.1S2384.05 857.98 2443.24 857.98S2510.82 846.35 2570.4 846.35S2636.17 863.69 2697.56 863.69L2686 953 L-100 953 Z"></animate>
  <animateTransform attributeName="transform" type="translate" dur="150s" begin="-109.0909090909091s" repeatCount="indefinite" values="0;10;0" calcMode="spline" keySplines="0.3 0 0.7 1;0.3 0 0.7 1"></animateTransform>
</path><path d="M-100 886.55C-32.18 892.54 -34 879.51 30.97 879.51S97.58 913.8 161.93 913.8S227.67 942.1 292.9 942.1S359.62 889.55 423.86 889.55S492.25 919.73 554.83 919.73S624.33 888.59 685.79 888.59S755.81 905.51 816.76 905.51S886.67 858.22 947.73 858.22S1014.38 931.05 1078.69 931.05S1144.64 880.29 1209.66 880.29S1279.59 882.04 1340.62 882.04S1406.51 878.77 1471.59 878.77S1539.1 897.47 1602.56 897.47S1669.46 857.48 1733.52 857.48S1801.6 866.93 1864.49 866.93S1934.02 914.99 1995.45 914.99S2061.58 945.12 2126.42 945.12S2195.68 865.58 2257.38 865.58S2325.56 944.49 2388.35 944.49S2457.96 876.23 2519.32 876.23S2587.21 931.61 2650.28 931.61S2719.31 876 2781.25 876L2686 953 L-100 953 Z" fill="#00639e" stroke-width="0">
  <animate attributeName="d" dur="100s" repeatCount="indefinite" values="M-100 886.55C-32.18 892.54 -34 879.51 30.97 879.51S97.58 913.8 161.93 913.8S227.67 942.1 292.9 942.1S359.62 889.55 423.86 889.55S492.25 919.73 554.83 919.73S624.33 888.59 685.79 888.59S755.81 905.51 816.76 905.51S886.67 858.22 947.73 858.22S1014.38 931.05 1078.69 931.05S1144.64 880.29 1209.66 880.29S1279.59 882.04 1340.62 882.04S1406.51 878.77 1471.59 878.77S1539.1 897.47 1602.56 897.47S1669.46 857.48 1733.52 857.48S1801.6 866.93 1864.49 866.93S1934.02 914.99 1995.45 914.99S2061.58 945.12 2126.42 945.12S2195.68 865.58 2257.38 865.58S2325.56 944.49 2388.35 944.49S2457.96 876.23 2519.32 876.23S2587.21 931.61 2650.28 931.61S2719.31 876 2781.25 876L2686 953 L-100 953 Z;M-100 884.46C-29.92 877.01 -30.38 946.03 30.97 946.03S97.88 926.49 161.93 926.49S228.68 877.46 292.9 877.46S360.42 926.92 423.86 926.92S490.11 894.83 554.83 894.83S624.07 927.66 685.79 927.66S755.42 913.86 816.76 913.86S886.18 894.86 947.73 894.86S1015.96 921.6 1078.69 921.6S1147.67 874.82 1209.66 874.82S1278.77 910.49 1340.62 910.49S1409.43 922.3 1471.59 922.3S1538.78 868.68 1602.56 868.68S1668.11 904.08 1733.52 904.08S1803.28 903.77 1864.49 903.77S1933.44 946.3 1995.45 946.3S2063.12 928.72 2126.42 928.72S2194.75 907.81 2257.38 907.81S2324.98 909.37 2388.35 909.37S2457.26 895.5 2519.32 895.5S2586.98 940.35 2650.28 940.35S2717.22 883.32 2781.25 883.32L2686 953 L-100 953 Z;M-100 886.55C-32.18 892.54 -34 879.51 30.97 879.51S97.58 913.8 161.93 913.8S227.67 942.1 292.9 942.1S359.62 889.55 423.86 889.55S492.25 919.73 554.83 919.73S624.33 888.59 685.79 888.59S755.81 905.51 816.76 905.51S886.67 858.22 947.73 858.22S1014.38 931.05 1078.69 931.05S1144.64 880.29 1209.66 880.29S1279.59 882.04 1340.62 882.04S1406.51 878.77 1471.59 878.77S1539.1 897.47 1602.56 897.47S1669.46 857.48 1733.52 857.48S1801.6 866.93 1864.49 866.93S1934.02 914.99 1995.45 914.99S2061.58 945.12 2126.42 945.12S2195.68 865.58 2257.38 865.58S2325.56 944.49 2388.35 944.49S2457.96 876.23 2519.32 876.23S2587.21 931.61 2650.28 931.61S2719.31 876 2781.25 876L2686 953 L-100 953 Z"></animate>
  <animateTransform attributeName="transform" type="translate" dur="100s" begin="-81.81818181818181s" repeatCount="indefinite" values="0;10;0" calcMode="spline" keySplines="0.3 0 0.7 1;0.3 0 0.7 1"></animateTransform>
</path><path d="M-100 895.96C-28.71 876.11 -31.96 906 35 906S102.79 920.85 170.01 920.85S237.75 944.64 305.01 944.64S376.78 967.79 440.02 967.79S509.23 931.84 575.02 931.84S644 906.17 710.03 906.17S778.62 910.5 845.03 910.5S917.18 898.99 980.04 898.99S1048.8 970.66 1115.04 970.66S1184.75 886.82 1250.04 886.82S1320.35 967.84 1385.05 967.84S1456.93 898.62 1520.05 898.62S1589.82 907.12 1655.06 907.12S1722.85 920.93 1790.06 920.93S1860.97 885.2 1925.07 885.2S1995.21 882.23 2060.07 882.23S2132.04 975.27 2195.07 975.27S2266.45 915.99 2330.08 915.99S2398.51 935.22 2465.08 935.22S2535.71 898.53 2600.09 898.53S2669.2 902.02 2735.09 902.02L2686 953 L-100 953 Z" fill="#005b99" stroke-width="0">
  <animate attributeName="d" dur="50s" repeatCount="indefinite" values="M-100 895.96C-28.71 876.11 -31.96 906 35 906S102.79 920.85 170.01 920.85S237.75 944.64 305.01 944.64S376.78 967.79 440.02 967.79S509.23 931.84 575.02 931.84S644 906.17 710.03 906.17S778.62 910.5 845.03 910.5S917.18 898.99 980.04 898.99S1048.8 970.66 1115.04 970.66S1184.75 886.82 1250.04 886.82S1320.35 967.84 1385.05 967.84S1456.93 898.62 1520.05 898.62S1589.82 907.12 1655.06 907.12S1722.85 920.93 1790.06 920.93S1860.97 885.2 1925.07 885.2S1995.21 882.23 2060.07 882.23S2132.04 975.27 2195.07 975.27S2266.45 915.99 2330.08 915.99S2398.51 935.22 2465.08 935.22S2535.71 898.53 2600.09 898.53S2669.2 902.02 2735.09 902.02L2686 953 L-100 953 Z;M-100 898.48C-28.49 890.92 -30.94 949.09 35 949.09S104.58 886.64 170.01 886.64S242.11 962.86 305.01 962.86S376.67 886.5 440.02 886.5S507.56 940.28 575.02 940.28S644.41 890.38 710.03 890.38S780.07 936.04 845.03 936.04S913.5 962.77 980.04 962.77S1047.92 887.72 1115.04 887.72S1182.85 909.62 1250.04 909.62S1318.68 934.39 1385.05 934.39S1456.93 912.56 1520.05 912.56S1589.32 929.44 1655.06 929.44S1723.75 957.93 1790.06 957.93S1857.96 931.54 1925.07 931.54S1994.88 898.99 2060.07 898.99S2129.9 875.5 2195.07 875.5S2266.19 920.55 2330.08 920.55S2401.28 967.98 2465.08 967.98S2536.36 875.19 2600.09 875.19S2668.25 915.65 2735.09 915.65L2686 953 L-100 953 Z;M-100 895.96C-28.71 876.11 -31.96 906 35 906S102.79 920.85 170.01 920.85S237.75 944.64 305.01 944.64S376.78 967.79 440.02 967.79S509.23 931.84 575.02 931.84S644 906.17 710.03 906.17S778.62 910.5 845.03 910.5S917.18 898.99 980.04 898.99S1048.8 970.66 1115.04 970.66S1184.75 886.82 1250.04 886.82S1320.35 967.84 1385.05 967.84S1456.93 898.62 1520.05 898.62S1589.82 907.12 1655.06 907.12S1722.85 920.93 1790.06 920.93S1860.97 885.2 1925.07 885.2S1995.21 882.23 2060.07 882.23S2132.04 975.27 2195.07 975.27S2266.45 915.99 2330.08 915.99S2398.51 935.22 2465.08 935.22S2535.71 898.53 2600.09 898.53S2669.2 902.02 2735.09 902.02L2686 953 L-100 953 Z"></animate>
  <animateTransform attributeName="transform" type="translate" dur="50s" begin="-45.45454545454545s" repeatCount="indefinite" values="0;10;0" calcMode="spline" keySplines="0.3 0 0.7 1;0.3 0 0.7 1"></animateTransform>
</path></g>
</svg>